G04 Layer_Color=16711935*
%FSLAX24Y24*%
%MOIN*%
G70*
G01*
G75*
%ADD37C,0.0039*%
%ADD39C,0.0079*%
%ADD69C,0.0050*%
D37*
X5440Y5768D02*
X5885Y6214D01*
X5217Y5991D02*
X5440Y5768D01*
X5217Y5991D02*
X5663Y6436D01*
X5885Y6214D01*
X5991Y5178D02*
X6436Y5623D01*
X5768Y5400D02*
X5991Y5178D01*
X5768Y5400D02*
X6214Y5846D01*
X6436Y5623D01*
X8583Y5551D02*
Y6181D01*
X8898D01*
Y5551D02*
Y6181D01*
X8583Y5551D02*
X8898D01*
X10433Y8268D02*
Y8898D01*
X10118Y8268D02*
X10433D01*
X10118D02*
Y8898D01*
X10433D01*
X16024Y3346D02*
X16654D01*
X16024D02*
Y3661D01*
X16654D01*
Y3346D02*
Y3661D01*
X16024Y2677D02*
X16654D01*
X16024D02*
Y2992D01*
X16654D01*
Y2677D02*
Y2992D01*
X29173Y3110D02*
X29803D01*
X29173D02*
Y3425D01*
X29803D01*
Y3110D02*
Y3425D01*
X29173Y4134D02*
X29803D01*
X29173D02*
Y4449D01*
X29803D01*
Y4134D02*
Y4449D01*
X30787Y3110D02*
X31417D01*
X30787D02*
Y3425D01*
X31417D01*
Y3110D02*
Y3425D01*
X31312Y3110D02*
X31417Y3215D01*
X30787Y4134D02*
X31417D01*
X30787D02*
Y4449D01*
X31417D01*
Y4134D02*
Y4449D01*
X31312Y4134D02*
X31417Y4239D01*
X9252Y591D02*
X9882D01*
X9252D02*
Y906D01*
X9882D01*
Y591D02*
Y906D01*
X9685Y6026D02*
X10315D01*
Y5707D02*
Y6026D01*
X9685Y5707D02*
X10315D01*
X9685D02*
Y6026D01*
Y6970D02*
X10315D01*
Y6652D02*
Y6970D01*
X9685Y6652D02*
X10315D01*
X9685D02*
Y6970D01*
X13346Y9490D02*
X13976D01*
Y9171D02*
Y9490D01*
X13346Y9171D02*
X13976D01*
X13346D02*
Y9490D01*
X13189Y3344D02*
X13819D01*
X13189D02*
Y3663D01*
X13819D01*
Y3344D02*
Y3663D01*
X9252Y1695D02*
X9882D01*
Y1376D02*
Y1695D01*
X9252Y1376D02*
X9882D01*
X9252D02*
Y1695D01*
X12126Y9490D02*
X12756D01*
Y9171D02*
Y9490D01*
X12126Y9171D02*
X12756D01*
X12126D02*
Y9490D01*
X18150Y4136D02*
X18780D01*
Y3817D02*
Y4136D01*
X18150Y3817D02*
X18780D01*
X18150D02*
Y4136D01*
X24646Y4390D02*
X26594Y6339D01*
X22697D02*
X24646Y4390D01*
X22697Y6339D02*
X24646Y8287D01*
X26594Y6339D01*
X26372Y6116D02*
Y6561D01*
X26803Y8208D02*
X27028Y8433D01*
X26583Y8879D02*
X27028Y8433D01*
X26357Y8653D02*
X26583Y8879D01*
X26357Y8653D02*
X26803Y8208D01*
X22184Y4126D02*
X22410Y4351D01*
X22184Y4126D02*
X22630Y3680D01*
X22855Y3906D01*
X22410Y4351D02*
X22855Y3906D01*
X28771Y8682D02*
X28997Y8456D01*
X28326Y8236D02*
X28771Y8682D01*
X28326Y8236D02*
X28551Y8011D01*
X28997Y8456D01*
X26724Y10690D02*
X26950Y10464D01*
X26279Y10244D02*
X26724Y10690D01*
X26279Y10244D02*
X26504Y10019D01*
X26950Y10464D01*
X26949Y4180D02*
X27172Y3957D01*
X27618Y4403D01*
X27395Y4625D02*
X27618Y4403D01*
X26949Y4180D02*
X27395Y4625D01*
X7814Y1215D02*
X8274Y1674D01*
X7383Y2565D02*
X8274Y1674D01*
X6923Y2106D02*
X7383Y2565D01*
X6923Y2106D02*
X7814Y1215D01*
X11811Y7717D02*
X14567D01*
Y4961D02*
Y7717D01*
X11811Y4961D02*
X14567D01*
X11811D02*
Y7717D01*
Y7402D02*
X12126Y7717D01*
X11273Y2480D02*
X11378Y2585D01*
Y2480D02*
Y2795D01*
X10748D02*
X11378D01*
X10748Y2480D02*
Y2795D01*
Y2480D02*
X11378D01*
X11273Y3386D02*
X11378Y3491D01*
Y3386D02*
Y3701D01*
X10748D02*
X11378D01*
X10748Y3386D02*
Y3701D01*
Y3386D02*
X11378D01*
X9882Y2480D02*
Y2795D01*
X9252D02*
X9882D01*
X9252Y2480D02*
Y2795D01*
Y2480D02*
X9882D01*
Y3386D02*
Y3701D01*
X9252D02*
X9882D01*
X9252Y3386D02*
Y3701D01*
Y3386D02*
X9882D01*
X12106Y502D02*
X12776D01*
X12106D02*
Y994D01*
X12776D01*
Y502D02*
Y994D01*
X12559Y502D02*
X12776Y719D01*
X17736Y5827D02*
Y7205D01*
X20295D01*
Y5827D02*
Y7205D01*
X17736Y5827D02*
X20295D01*
X17736Y6732D02*
X18642Y5827D01*
D39*
X26862Y9463D02*
X27752Y8572D01*
X26862Y9463D02*
X27557Y10159D01*
X28448Y9268D01*
X27752Y8572D02*
X28448Y9268D01*
X30197Y6063D02*
Y8110D01*
X32244D01*
Y6063D02*
Y8110D01*
X30197Y6063D02*
X32244D01*
D69*
X122Y3240D02*
X2572Y5690D01*
X5695Y2566D01*
X3246Y117D02*
X5695Y2566D01*
X122Y3240D02*
X3246Y117D01*
M02*
