G04 Layer_Color=8421504*
%FSLAX24Y24*%
%MOIN*%
G70*
G01*
G75*
%ADD10R,0.0390X0.0307*%
%ADD11R,0.0551X0.0453*%
%ADD12R,0.0276X0.0394*%
%ADD13R,0.1260X0.0689*%
%ADD14R,0.0374X0.0689*%
%ADD15R,0.0433X0.0197*%
%ADD16R,0.0354X0.0374*%
%ADD17R,0.0315X0.0374*%
%ADD18R,0.0236X0.0581*%
%ADD19R,0.0581X0.0236*%
G04:AMPARAMS|DCode=20|XSize=71.7mil|YSize=45.7mil|CornerRadius=0mil|HoleSize=0mil|Usage=FLASHONLY|Rotation=225.000|XOffset=0mil|YOffset=0mil|HoleType=Round|Shape=Rectangle|*
%AMROTATEDRECTD20*
4,1,4,0.0092,0.0415,0.0415,0.0092,-0.0092,-0.0415,-0.0415,-0.0092,0.0092,0.0415,0.0*
%
%ADD20ROTATEDRECTD20*%

G04:AMPARAMS|DCode=21|XSize=37.4mil|YSize=35.4mil|CornerRadius=0mil|HoleSize=0mil|Usage=FLASHONLY|Rotation=135.000|XOffset=0mil|YOffset=0mil|HoleType=Round|Shape=Rectangle|*
%AMROTATEDRECTD21*
4,1,4,0.0258,-0.0007,0.0007,-0.0258,-0.0258,0.0007,-0.0007,0.0258,0.0258,-0.0007,0.0*
%
%ADD21ROTATEDRECTD21*%

G04:AMPARAMS|DCode=22|XSize=39mil|YSize=30.7mil|CornerRadius=0mil|HoleSize=0mil|Usage=FLASHONLY|Rotation=315.000|XOffset=0mil|YOffset=0mil|HoleType=Round|Shape=Rectangle|*
%AMROTATEDRECTD22*
4,1,4,-0.0246,0.0029,-0.0029,0.0246,0.0246,-0.0029,0.0029,-0.0246,-0.0246,0.0029,0.0*
%
%ADD22ROTATEDRECTD22*%

G04:AMPARAMS|DCode=23|XSize=39mil|YSize=30.7mil|CornerRadius=0mil|HoleSize=0mil|Usage=FLASHONLY|Rotation=45.000|XOffset=0mil|YOffset=0mil|HoleType=Round|Shape=Rectangle|*
%AMROTATEDRECTD23*
4,1,4,-0.0029,-0.0246,-0.0246,-0.0029,0.0029,0.0246,0.0246,0.0029,-0.0029,-0.0246,0.0*
%
%ADD23ROTATEDRECTD23*%

G04:AMPARAMS|DCode=24|XSize=58.1mil|YSize=23.6mil|CornerRadius=0mil|HoleSize=0mil|Usage=FLASHONLY|Rotation=315.000|XOffset=0mil|YOffset=0mil|HoleType=Round|Shape=Rectangle|*
%AMROTATEDRECTD24*
4,1,4,-0.0289,0.0122,-0.0122,0.0289,0.0289,-0.0122,0.0122,-0.0289,-0.0289,0.0122,0.0*
%
%ADD24ROTATEDRECTD24*%

G04:AMPARAMS|DCode=25|XSize=58.1mil|YSize=23.6mil|CornerRadius=0mil|HoleSize=0mil|Usage=FLASHONLY|Rotation=225.000|XOffset=0mil|YOffset=0mil|HoleType=Round|Shape=Rectangle|*
%AMROTATEDRECTD25*
4,1,4,0.0122,0.0289,0.0289,0.0122,-0.0122,-0.0289,-0.0289,-0.0122,0.0122,0.0289,0.0*
%
%ADD25ROTATEDRECTD25*%

G04:AMPARAMS|DCode=26|XSize=55.1mil|YSize=45.3mil|CornerRadius=0mil|HoleSize=0mil|Usage=FLASHONLY|Rotation=135.000|XOffset=0mil|YOffset=0mil|HoleType=Round|Shape=Rectangle|*
%AMROTATEDRECTD26*
4,1,4,0.0355,-0.0035,0.0035,-0.0355,-0.0355,0.0035,-0.0035,0.0355,0.0355,-0.0035,0.0*
%
%ADD26ROTATEDRECTD26*%

G04:AMPARAMS|DCode=27|XSize=275.6mil|YSize=59.1mil|CornerRadius=0mil|HoleSize=0mil|Usage=FLASHONLY|Rotation=45.000|XOffset=0mil|YOffset=0mil|HoleType=Round|Shape=Rectangle|*
%AMROTATEDRECTD27*
4,1,4,-0.0766,-0.1183,-0.1183,-0.0766,0.0766,0.1183,0.1183,0.0766,-0.0766,-0.1183,0.0*
%
%ADD27ROTATEDRECTD27*%

G04:AMPARAMS|DCode=28|XSize=246.1mil|YSize=59.1mil|CornerRadius=0mil|HoleSize=0mil|Usage=FLASHONLY|Rotation=45.000|XOffset=0mil|YOffset=0mil|HoleType=Round|Shape=Rectangle|*
%AMROTATEDRECTD28*
4,1,4,-0.0661,-0.1079,-0.1079,-0.0661,0.0661,0.1079,0.1079,0.0661,-0.0661,-0.1079,0.0*
%
%ADD28ROTATEDRECTD28*%

%ADD29R,0.0307X0.0390*%
%ADD30R,0.0374X0.0354*%
D10*
X15000Y9685D02*
D03*
Y10236D02*
D03*
X12126Y9685D02*
D03*
Y10236D02*
D03*
X15827Y8701D02*
D03*
Y8150D02*
D03*
D11*
X13976Y10276D02*
D03*
X13110D02*
D03*
Y9646D02*
D03*
X13976D02*
D03*
D12*
X31949Y8268D02*
D03*
Y5906D02*
D03*
X30492Y8268D02*
D03*
Y5906D02*
D03*
D13*
X19016Y7756D02*
D03*
D14*
X19921Y5276D02*
D03*
X19016D02*
D03*
X18110D02*
D03*
D15*
X11988Y748D02*
D03*
X12894D02*
D03*
D16*
X9882Y3543D02*
D03*
X9252D02*
D03*
X9882Y2638D02*
D03*
X9252D02*
D03*
Y748D02*
D03*
X9882D02*
D03*
X29173Y4291D02*
D03*
X29803D02*
D03*
X29173Y3268D02*
D03*
X29803D02*
D03*
X16024Y2835D02*
D03*
X16654D02*
D03*
X16024Y3504D02*
D03*
X16654D02*
D03*
X10315Y7559D02*
D03*
X9685D02*
D03*
D17*
X11398Y3543D02*
D03*
X10728D02*
D03*
X11398Y2638D02*
D03*
X10728D02*
D03*
X30768Y4291D02*
D03*
X31437D02*
D03*
X30768Y3268D02*
D03*
X31437D02*
D03*
D18*
X12087Y8007D02*
D03*
X12402D02*
D03*
X12717D02*
D03*
X13031D02*
D03*
X13346D02*
D03*
X13661D02*
D03*
X13976D02*
D03*
X14291D02*
D03*
Y4670D02*
D03*
X13976D02*
D03*
X13661D02*
D03*
X13346D02*
D03*
X13031D02*
D03*
X12717D02*
D03*
X12402D02*
D03*
X12087D02*
D03*
D19*
X14857Y7441D02*
D03*
Y7126D02*
D03*
Y6811D02*
D03*
Y6496D02*
D03*
Y6181D02*
D03*
Y5866D02*
D03*
Y5551D02*
D03*
Y5236D02*
D03*
X11520D02*
D03*
Y5551D02*
D03*
Y5866D02*
D03*
Y6181D02*
D03*
Y6496D02*
D03*
Y6811D02*
D03*
Y7126D02*
D03*
Y7441D02*
D03*
D20*
X8009Y1479D02*
D03*
X7188Y2300D02*
D03*
D21*
X27061Y4069D02*
D03*
X27506Y4514D02*
D03*
X5880Y5289D02*
D03*
X6325Y5735D02*
D03*
X5328Y5880D02*
D03*
X5774Y6325D02*
D03*
D22*
X26809Y10549D02*
D03*
X26419Y10159D02*
D03*
X28856Y8541D02*
D03*
X28467Y8152D02*
D03*
D23*
X22325Y4211D02*
D03*
X22715Y3821D02*
D03*
X26888Y8348D02*
D03*
X26498Y8738D02*
D03*
D24*
X26605Y5938D02*
D03*
X26382Y5716D02*
D03*
X26160Y5493D02*
D03*
X25937Y5270D02*
D03*
X25714Y5047D02*
D03*
X25491Y4825D02*
D03*
X25269Y4602D02*
D03*
X25046Y4379D02*
D03*
X22686Y6739D02*
D03*
X22909Y6962D02*
D03*
X23132Y7184D02*
D03*
X23354Y7407D02*
D03*
X23577Y7630D02*
D03*
X23800Y7852D02*
D03*
X24023Y8075D02*
D03*
X24245Y8298D02*
D03*
D25*
Y4379D02*
D03*
X24023Y4602D02*
D03*
X23800Y4825D02*
D03*
X23577Y5047D02*
D03*
X23354Y5270D02*
D03*
X23132Y5493D02*
D03*
X22909Y5716D02*
D03*
X22686Y5938D02*
D03*
X25046Y8298D02*
D03*
X25269Y8075D02*
D03*
X25491Y7852D02*
D03*
X25714Y7630D02*
D03*
X25937Y7407D02*
D03*
X26160Y7184D02*
D03*
X26382Y6962D02*
D03*
X26605Y6739D02*
D03*
D26*
X27738Y8836D02*
D03*
X27126Y9449D02*
D03*
X27571Y9894D02*
D03*
X28184Y9282D02*
D03*
D27*
X2074Y4017D02*
D03*
X4022Y2068D02*
D03*
D28*
X2874Y3425D02*
D03*
X3431Y2868D02*
D03*
D29*
X18740Y3976D02*
D03*
X18189D02*
D03*
X9724Y8307D02*
D03*
X10276D02*
D03*
X9843Y1535D02*
D03*
X9291D02*
D03*
X13228Y3504D02*
D03*
X13780D02*
D03*
X10276Y6811D02*
D03*
X9724D02*
D03*
X10276Y5866D02*
D03*
X9724D02*
D03*
D30*
X8740Y6181D02*
D03*
Y5551D02*
D03*
M02*
