G04 Layer_Color=8388736*
%FSLAX24Y24*%
%MOIN*%
G70*
G01*
G75*
G04:AMPARAMS|DCode=41|XSize=45.4mil|YSize=43.4mil|CornerRadius=0mil|HoleSize=0mil|Usage=FLASHONLY|Rotation=315.000|XOffset=0mil|YOffset=0mil|HoleType=Round|Shape=Rectangle|*
%AMROTATEDRECTD41*
4,1,4,-0.0314,0.0007,-0.0007,0.0314,0.0314,-0.0007,0.0007,-0.0314,-0.0314,0.0007,0.0*
%
%ADD41ROTATEDRECTD41*%

%ADD42R,0.0454X0.0434*%
%ADD43R,0.0434X0.0454*%
%ADD44R,0.0395X0.0454*%
%ADD45R,0.0387X0.0470*%
G04:AMPARAMS|DCode=46|XSize=283.6mil|YSize=67.1mil|CornerRadius=0mil|HoleSize=0mil|Usage=FLASHONLY|Rotation=45.000|XOffset=0mil|YOffset=0mil|HoleType=Round|Shape=Rectangle|*
%AMROTATEDRECTD46*
4,1,4,-0.0766,-0.1240,-0.1240,-0.0766,0.0766,0.1240,0.1240,0.0766,-0.0766,-0.1240,0.0*
%
%ADD46ROTATEDRECTD46*%

G04:AMPARAMS|DCode=47|XSize=254.1mil|YSize=67.1mil|CornerRadius=0mil|HoleSize=0mil|Usage=FLASHONLY|Rotation=45.000|XOffset=0mil|YOffset=0mil|HoleType=Round|Shape=Rectangle|*
%AMROTATEDRECTD47*
4,1,4,-0.0661,-0.1135,-0.1135,-0.0661,0.0661,0.1135,0.1135,0.0661,-0.0661,-0.1135,0.0*
%
%ADD47ROTATEDRECTD47*%

G04:AMPARAMS|DCode=48|XSize=63.1mil|YSize=53.3mil|CornerRadius=0mil|HoleSize=0mil|Usage=FLASHONLY|Rotation=135.000|XOffset=0mil|YOffset=0mil|HoleType=Round|Shape=Rectangle|*
%AMROTATEDRECTD48*
4,1,4,0.0412,-0.0035,0.0035,-0.0412,-0.0412,0.0035,-0.0035,0.0412,0.0412,-0.0035,0.0*
%
%ADD48ROTATEDRECTD48*%

G04:AMPARAMS|DCode=49|XSize=66.1mil|YSize=31.6mil|CornerRadius=0mil|HoleSize=0mil|Usage=FLASHONLY|Rotation=225.000|XOffset=0mil|YOffset=0mil|HoleType=Round|Shape=Rectangle|*
%AMROTATEDRECTD49*
4,1,4,0.0122,0.0345,0.0345,0.0122,-0.0122,-0.0345,-0.0345,-0.0122,0.0122,0.0345,0.0*
%
%ADD49ROTATEDRECTD49*%

G04:AMPARAMS|DCode=50|XSize=66.1mil|YSize=31.6mil|CornerRadius=0mil|HoleSize=0mil|Usage=FLASHONLY|Rotation=315.000|XOffset=0mil|YOffset=0mil|HoleType=Round|Shape=Rectangle|*
%AMROTATEDRECTD50*
4,1,4,-0.0345,0.0122,-0.0122,0.0345,0.0345,-0.0122,0.0122,-0.0345,-0.0345,0.0122,0.0*
%
%ADD50ROTATEDRECTD50*%

G04:AMPARAMS|DCode=51|XSize=47mil|YSize=38.7mil|CornerRadius=0mil|HoleSize=0mil|Usage=FLASHONLY|Rotation=225.000|XOffset=0mil|YOffset=0mil|HoleType=Round|Shape=Rectangle|*
%AMROTATEDRECTD51*
4,1,4,0.0029,0.0303,0.0303,0.0029,-0.0029,-0.0303,-0.0303,-0.0029,0.0029,0.0303,0.0*
%
%ADD51ROTATEDRECTD51*%

G04:AMPARAMS|DCode=52|XSize=47mil|YSize=38.7mil|CornerRadius=0mil|HoleSize=0mil|Usage=FLASHONLY|Rotation=315.000|XOffset=0mil|YOffset=0mil|HoleType=Round|Shape=Rectangle|*
%AMROTATEDRECTD52*
4,1,4,-0.0303,0.0029,-0.0029,0.0303,0.0303,-0.0029,0.0029,-0.0303,-0.0303,0.0029,0.0*
%
%ADD52ROTATEDRECTD52*%

G04:AMPARAMS|DCode=53|XSize=79.7mil|YSize=53.7mil|CornerRadius=0mil|HoleSize=0mil|Usage=FLASHONLY|Rotation=225.000|XOffset=0mil|YOffset=0mil|HoleType=Round|Shape=Rectangle|*
%AMROTATEDRECTD53*
4,1,4,0.0092,0.0471,0.0471,0.0092,-0.0092,-0.0471,-0.0471,-0.0092,0.0092,0.0471,0.0*
%
%ADD53ROTATEDRECTD53*%

%ADD54R,0.0661X0.0316*%
%ADD55R,0.0316X0.0661*%
%ADD56R,0.0513X0.0277*%
%ADD57R,0.0454X0.0769*%
%ADD58R,0.1340X0.0769*%
%ADD59R,0.0356X0.0474*%
%ADD60O,0.0580X0.1080*%
%ADD61P,0.0747X8X292.5*%
%ADD62C,0.1458*%
D41*
X5774Y6325D02*
D03*
X5328Y5880D02*
D03*
X6325Y5735D02*
D03*
X5880Y5289D02*
D03*
X27506Y4514D02*
D03*
X27061Y4069D02*
D03*
D42*
X8740Y5551D02*
D03*
Y6181D02*
D03*
X10276Y8898D02*
D03*
Y8268D02*
D03*
D43*
X16654Y3504D02*
D03*
X16024D02*
D03*
X16654Y2835D02*
D03*
X16024D02*
D03*
X29803Y3268D02*
D03*
X29173D02*
D03*
X29803Y4291D02*
D03*
X29173D02*
D03*
X9882Y748D02*
D03*
X9252D02*
D03*
Y2638D02*
D03*
X9882D02*
D03*
X9252Y3543D02*
D03*
X9882D02*
D03*
D44*
X31437Y3268D02*
D03*
X30768D02*
D03*
X31437Y4291D02*
D03*
X30768D02*
D03*
X10728Y2638D02*
D03*
X11398D02*
D03*
X10728Y3543D02*
D03*
X11398D02*
D03*
D45*
X9724Y5866D02*
D03*
X10276D02*
D03*
X9724Y6811D02*
D03*
X10276D02*
D03*
X13386Y9331D02*
D03*
X13937D02*
D03*
X13780Y3504D02*
D03*
X13228D02*
D03*
X9291Y1535D02*
D03*
X9843D02*
D03*
X12165Y9331D02*
D03*
X12717D02*
D03*
X18189Y3976D02*
D03*
X18740D02*
D03*
D46*
X4022Y2068D02*
D03*
X2074Y4017D02*
D03*
D47*
X3431Y2868D02*
D03*
X2874Y3425D02*
D03*
D48*
X28184Y9282D02*
D03*
X27571Y9894D02*
D03*
X27126Y9449D02*
D03*
X27738Y8836D02*
D03*
D49*
X26605Y6739D02*
D03*
X26382Y6962D02*
D03*
X26160Y7184D02*
D03*
X25937Y7407D02*
D03*
X25714Y7630D02*
D03*
X25491Y7852D02*
D03*
X25269Y8075D02*
D03*
X25046Y8298D02*
D03*
X22686Y5938D02*
D03*
X22909Y5716D02*
D03*
X23132Y5493D02*
D03*
X23354Y5270D02*
D03*
X23577Y5047D02*
D03*
X23800Y4825D02*
D03*
X24023Y4602D02*
D03*
X24245Y4379D02*
D03*
D50*
Y8298D02*
D03*
X24023Y8075D02*
D03*
X23800Y7852D02*
D03*
X23577Y7630D02*
D03*
X23354Y7407D02*
D03*
X23132Y7184D02*
D03*
X22909Y6962D02*
D03*
X22686Y6739D02*
D03*
X25046Y4379D02*
D03*
X25269Y4602D02*
D03*
X25491Y4825D02*
D03*
X25714Y5047D02*
D03*
X25937Y5270D02*
D03*
X26160Y5493D02*
D03*
X26382Y5716D02*
D03*
X26605Y5938D02*
D03*
D51*
X26498Y8738D02*
D03*
X26888Y8348D02*
D03*
X22715Y3821D02*
D03*
X22325Y4211D02*
D03*
D52*
X28467Y8152D02*
D03*
X28856Y8541D02*
D03*
X26419Y10159D02*
D03*
X26809Y10549D02*
D03*
D53*
X7188Y2300D02*
D03*
X8009Y1479D02*
D03*
D54*
X11520Y7441D02*
D03*
Y7126D02*
D03*
Y6811D02*
D03*
Y6496D02*
D03*
Y6181D02*
D03*
Y5866D02*
D03*
Y5551D02*
D03*
Y5236D02*
D03*
X14857D02*
D03*
Y5551D02*
D03*
Y5866D02*
D03*
Y6181D02*
D03*
Y6496D02*
D03*
Y6811D02*
D03*
Y7126D02*
D03*
Y7441D02*
D03*
D55*
X12087Y4670D02*
D03*
X12402D02*
D03*
X12717D02*
D03*
X13031D02*
D03*
X13346D02*
D03*
X13661D02*
D03*
X13976D02*
D03*
X14291D02*
D03*
Y8007D02*
D03*
X13976D02*
D03*
X13661D02*
D03*
X13346D02*
D03*
X13031D02*
D03*
X12717D02*
D03*
X12402D02*
D03*
X12087D02*
D03*
D56*
X12894Y748D02*
D03*
X11988D02*
D03*
D57*
X18110Y5276D02*
D03*
X19016D02*
D03*
X19921D02*
D03*
D58*
X19016Y7756D02*
D03*
D59*
X30492Y5906D02*
D03*
Y8268D02*
D03*
X31949Y5906D02*
D03*
Y8268D02*
D03*
D60*
X30693Y19984D02*
D03*
X29693D02*
D03*
X28693D02*
D03*
X27693D02*
D03*
X26693D02*
D03*
X25693D02*
D03*
X24693D02*
D03*
X23693D02*
D03*
X22193D02*
D03*
X21193D02*
D03*
X20193D02*
D03*
X19193D02*
D03*
X18193D02*
D03*
X17193D02*
D03*
X16193D02*
D03*
X15193D02*
D03*
X14193D02*
D03*
X13193D02*
D03*
X16693Y984D02*
D03*
X17693D02*
D03*
X18693D02*
D03*
X19693D02*
D03*
X20693D02*
D03*
X21693D02*
D03*
X22693D02*
D03*
X23693D02*
D03*
X25693D02*
D03*
X26693D02*
D03*
X27693D02*
D03*
X28693D02*
D03*
X29693D02*
D03*
X30693D02*
D03*
D61*
X30743Y11984D02*
D03*
X31743D02*
D03*
X30743Y10984D02*
D03*
X31743D02*
D03*
X30743Y9984D02*
D03*
X31743D02*
D03*
D62*
X1969Y19291D02*
D03*
M02*
