G04 Layer_Physical_Order=1*
G04 Layer_Color=255*
%FSLAX24Y24*%
%MOIN*%
G70*
G01*
G75*
G04:AMPARAMS|DCode=10|XSize=37.4mil|YSize=35.4mil|CornerRadius=0mil|HoleSize=0mil|Usage=FLASHONLY|Rotation=315.000|XOffset=0mil|YOffset=0mil|HoleType=Round|Shape=Rectangle|*
%AMROTATEDRECTD10*
4,1,4,-0.0258,0.0007,-0.0007,0.0258,0.0258,-0.0007,0.0007,-0.0258,-0.0258,0.0007,0.0*
%
%ADD10ROTATEDRECTD10*%

%ADD11R,0.0374X0.0354*%
%ADD12R,0.0354X0.0374*%
%ADD13R,0.0315X0.0374*%
%ADD14R,0.0307X0.0390*%
G04:AMPARAMS|DCode=15|XSize=275.6mil|YSize=59.1mil|CornerRadius=0mil|HoleSize=0mil|Usage=FLASHONLY|Rotation=45.000|XOffset=0mil|YOffset=0mil|HoleType=Round|Shape=Rectangle|*
%AMROTATEDRECTD15*
4,1,4,-0.0766,-0.1183,-0.1183,-0.0766,0.0766,0.1183,0.1183,0.0766,-0.0766,-0.1183,0.0*
%
%ADD15ROTATEDRECTD15*%

G04:AMPARAMS|DCode=16|XSize=246.1mil|YSize=59.1mil|CornerRadius=0mil|HoleSize=0mil|Usage=FLASHONLY|Rotation=45.000|XOffset=0mil|YOffset=0mil|HoleType=Round|Shape=Rectangle|*
%AMROTATEDRECTD16*
4,1,4,-0.0661,-0.1079,-0.1079,-0.0661,0.0661,0.1079,0.1079,0.0661,-0.0661,-0.1079,0.0*
%
%ADD16ROTATEDRECTD16*%

G04:AMPARAMS|DCode=17|XSize=55.1mil|YSize=45.3mil|CornerRadius=0mil|HoleSize=0mil|Usage=FLASHONLY|Rotation=135.000|XOffset=0mil|YOffset=0mil|HoleType=Round|Shape=Rectangle|*
%AMROTATEDRECTD17*
4,1,4,0.0355,-0.0035,0.0035,-0.0355,-0.0355,0.0035,-0.0035,0.0355,0.0355,-0.0035,0.0*
%
%ADD17ROTATEDRECTD17*%

G04:AMPARAMS|DCode=18|XSize=58.1mil|YSize=23.6mil|CornerRadius=0mil|HoleSize=0mil|Usage=FLASHONLY|Rotation=225.000|XOffset=0mil|YOffset=0mil|HoleType=Round|Shape=Rectangle|*
%AMROTATEDRECTD18*
4,1,4,0.0122,0.0289,0.0289,0.0122,-0.0122,-0.0289,-0.0289,-0.0122,0.0122,0.0289,0.0*
%
%ADD18ROTATEDRECTD18*%

G04:AMPARAMS|DCode=19|XSize=58.1mil|YSize=23.6mil|CornerRadius=0mil|HoleSize=0mil|Usage=FLASHONLY|Rotation=315.000|XOffset=0mil|YOffset=0mil|HoleType=Round|Shape=Rectangle|*
%AMROTATEDRECTD19*
4,1,4,-0.0289,0.0122,-0.0122,0.0289,0.0289,-0.0122,0.0122,-0.0289,-0.0289,0.0122,0.0*
%
%ADD19ROTATEDRECTD19*%

G04:AMPARAMS|DCode=20|XSize=39mil|YSize=30.7mil|CornerRadius=0mil|HoleSize=0mil|Usage=FLASHONLY|Rotation=225.000|XOffset=0mil|YOffset=0mil|HoleType=Round|Shape=Rectangle|*
%AMROTATEDRECTD20*
4,1,4,0.0029,0.0246,0.0246,0.0029,-0.0029,-0.0246,-0.0246,-0.0029,0.0029,0.0246,0.0*
%
%ADD20ROTATEDRECTD20*%

G04:AMPARAMS|DCode=21|XSize=39mil|YSize=30.7mil|CornerRadius=0mil|HoleSize=0mil|Usage=FLASHONLY|Rotation=315.000|XOffset=0mil|YOffset=0mil|HoleType=Round|Shape=Rectangle|*
%AMROTATEDRECTD21*
4,1,4,-0.0246,0.0029,-0.0029,0.0246,0.0246,-0.0029,0.0029,-0.0246,-0.0246,0.0029,0.0*
%
%ADD21ROTATEDRECTD21*%

G04:AMPARAMS|DCode=22|XSize=71.7mil|YSize=45.7mil|CornerRadius=0mil|HoleSize=0mil|Usage=FLASHONLY|Rotation=225.000|XOffset=0mil|YOffset=0mil|HoleType=Round|Shape=Rectangle|*
%AMROTATEDRECTD22*
4,1,4,0.0092,0.0415,0.0415,0.0092,-0.0092,-0.0415,-0.0415,-0.0092,0.0092,0.0415,0.0*
%
%ADD22ROTATEDRECTD22*%

%ADD23R,0.0581X0.0236*%
%ADD24R,0.0236X0.0581*%
%ADD25R,0.0433X0.0197*%
%ADD26R,0.0374X0.0689*%
%ADD27R,0.1260X0.0689*%
%ADD28R,0.0276X0.0394*%
%ADD29C,0.0100*%
%ADD30C,0.0150*%
%ADD31C,0.0200*%
%ADD32C,0.0120*%
%ADD33O,0.0500X0.1000*%
%ADD34P,0.0660X8X292.5*%
%ADD35C,0.1378*%
%ADD36C,0.0276*%
G36*
X32670Y21055D02*
X32838Y21015D01*
X32998Y20949D01*
X33145Y20859D01*
X33276Y20747D01*
X33388Y20615D01*
X33478Y20468D01*
X33545Y20309D01*
X33585Y20141D01*
X33598Y19973D01*
X33597Y19969D01*
Y1262D01*
X33595Y1252D01*
X33595D01*
X33596Y1251D01*
X33583Y1080D01*
X33543Y912D01*
X33476Y752D01*
X33386Y605D01*
X33274Y474D01*
X33143Y362D01*
X32996Y272D01*
X32836Y205D01*
X32668Y165D01*
X32501Y152D01*
X32496Y153D01*
X8330D01*
X5895Y2550D01*
X5870Y2566D01*
X5846Y2582D01*
X5845Y2582D01*
X5845Y2583D01*
X5816Y2588D01*
X5787Y2594D01*
X5787Y2594D01*
X5786Y2594D01*
X5758Y2588D01*
X5729Y2582D01*
X5728Y2582D01*
X5728Y2582D01*
X5704Y2565D01*
X5679Y2549D01*
X5329Y2899D01*
X5348Y2946D01*
X6254D01*
X6811Y2388D01*
X6632Y2209D01*
X7096Y1744D01*
X7744Y2392D01*
X7280Y2857D01*
X7100Y2677D01*
X6483Y3294D01*
X6417Y3338D01*
X6339Y3354D01*
X5104D01*
X5026Y3338D01*
X4960Y3294D01*
X4947Y3281D01*
X4554Y3675D01*
X5828Y4949D01*
X5887Y4890D01*
X6279Y5282D01*
X5873Y5688D01*
X5481Y5296D01*
X5539Y5237D01*
X4265Y3963D01*
X3983Y4246D01*
X5277Y5539D01*
X5335Y5481D01*
X5727Y5873D01*
X5322Y6279D01*
X4930Y5887D01*
X4988Y5828D01*
X3694Y4534D01*
X3287Y4942D01*
X3561Y5216D01*
X3597Y5223D01*
X3675Y5276D01*
X3728Y5354D01*
X3735Y5390D01*
X3994Y5649D01*
X4030Y5656D01*
X4108Y5709D01*
X4161Y5787D01*
X4170Y5830D01*
X3937D01*
Y5880D01*
X3887D01*
Y6113D01*
X3844Y6104D01*
X3766Y6052D01*
X3713Y5973D01*
X3706Y5937D01*
X3447Y5678D01*
X3411Y5671D01*
X3332Y5619D01*
X3280Y5540D01*
X3273Y5504D01*
X2998Y5230D01*
X2555Y5673D01*
X2571Y5698D01*
X2588Y5722D01*
X2588Y5722D01*
X2588Y5723D01*
X2594Y5752D01*
X2600Y5780D01*
X2600Y5781D01*
X2600Y5781D01*
X2594Y5810D01*
X2589Y5839D01*
X2588Y5839D01*
X2588Y5840D01*
X2572Y5864D01*
X2556Y5889D01*
X153Y8330D01*
Y19969D01*
X152Y19973D01*
X165Y20141D01*
X205Y20309D01*
X272Y20468D01*
X362Y20615D01*
X474Y20747D01*
X605Y20859D01*
X752Y20949D01*
X912Y21015D01*
X1080Y21055D01*
X1247Y21068D01*
X1252Y21068D01*
X32498D01*
X32503Y21068D01*
X32670Y21055D01*
D02*
G37*
%LPC*%
G36*
X15248Y5186D02*
X14907D01*
Y5018D01*
X15248D01*
Y5186D01*
D02*
G37*
G36*
X18397Y5226D02*
X18160D01*
Y4831D01*
X18397D01*
Y5226D01*
D02*
G37*
G36*
Y5720D02*
X18160D01*
Y5326D01*
X18397D01*
Y5720D01*
D02*
G37*
G36*
X18060D02*
X17823D01*
Y5326D01*
X18060D01*
Y5720D01*
D02*
G37*
G36*
Y5226D02*
X17823D01*
Y4831D01*
X18060D01*
Y5226D01*
D02*
G37*
G36*
X31387Y4578D02*
X31180D01*
Y4341D01*
X31387D01*
Y4578D01*
D02*
G37*
G36*
X14807Y5186D02*
X14467D01*
Y5060D01*
X13711D01*
Y4670D01*
Y4280D01*
X14509D01*
Y5018D01*
X14807D01*
Y5186D01*
D02*
G37*
G36*
X31025Y4578D02*
X30510D01*
Y4444D01*
X30080D01*
Y4578D01*
X29526D01*
Y4004D01*
X30080D01*
Y4138D01*
X30510D01*
Y4004D01*
X31025D01*
Y4578D01*
D02*
G37*
G36*
X31694D02*
X31487D01*
Y4341D01*
X31694D01*
Y4578D01*
D02*
G37*
G36*
X31899Y5856D02*
X31711D01*
Y5609D01*
X31899D01*
Y5856D01*
D02*
G37*
G36*
X9674Y7106D02*
X9471D01*
Y6861D01*
X9674D01*
Y7106D01*
D02*
G37*
G36*
Y6761D02*
X9471D01*
Y6516D01*
X9674D01*
Y6761D01*
D02*
G37*
G36*
X26890Y7762D02*
X26797Y7744D01*
X26718Y7691D01*
X26666Y7612D01*
X26647Y7520D01*
X26652Y7498D01*
X26525Y7371D01*
X26471Y7425D01*
X26195Y7149D01*
X25919Y6873D01*
X26175Y6617D01*
X26453Y6339D01*
X26175Y6060D01*
X25952Y5837D01*
X25729Y5615D01*
X25507Y5392D01*
X25284Y5169D01*
X25061Y4947D01*
X24838Y4724D01*
X24646Y4531D01*
X24367Y4810D01*
X24144Y5032D01*
X23922Y5255D01*
X23889Y5288D01*
X23613Y5012D01*
X23337Y4736D01*
X23370Y4703D01*
X23638Y4434D01*
X23593Y4388D01*
X23559Y4339D01*
X23548Y4280D01*
Y3307D01*
X23559Y3249D01*
X23593Y3199D01*
X25385Y1406D01*
X25352Y1326D01*
X25340Y1234D01*
Y734D01*
X25352Y643D01*
X25387Y558D01*
X25443Y485D01*
X25516Y429D01*
X25602Y393D01*
X25693Y381D01*
X25784Y393D01*
X25869Y429D01*
X25943Y485D01*
X25999Y558D01*
X26034Y643D01*
X26046Y734D01*
Y1234D01*
X26034Y1326D01*
X25999Y1411D01*
X25943Y1484D01*
X25869Y1540D01*
X25784Y1575D01*
X25693Y1587D01*
X25643Y1581D01*
X23854Y3370D01*
Y4148D01*
X23893Y4168D01*
X23904Y4169D01*
X23942Y4131D01*
Y3858D01*
X23953Y3800D01*
X23986Y3750D01*
X26369Y1367D01*
X26352Y1326D01*
X26340Y1234D01*
Y734D01*
X26352Y643D01*
X26387Y558D01*
X26443Y485D01*
X26516Y429D01*
X26602Y393D01*
X26693Y381D01*
X26784Y393D01*
X26869Y429D01*
X26943Y485D01*
X26999Y558D01*
X27034Y643D01*
X27046Y734D01*
Y1234D01*
X27034Y1326D01*
X26999Y1411D01*
X26943Y1484D01*
X26869Y1540D01*
X26784Y1575D01*
X26693Y1587D01*
X26602Y1575D01*
X26596Y1573D01*
X24247Y3922D01*
Y4071D01*
X24353Y4177D01*
X24358Y4184D01*
X24646Y4471D01*
X24893Y4224D01*
Y3773D01*
X24905Y3714D01*
X24938Y3665D01*
X27343Y1259D01*
X27340Y1234D01*
Y734D01*
X27352Y643D01*
X27387Y558D01*
X27443Y485D01*
X27516Y429D01*
X27602Y393D01*
X27693Y381D01*
X27784Y393D01*
X27869Y429D01*
X27943Y485D01*
X27999Y558D01*
X28034Y643D01*
X28046Y734D01*
Y1234D01*
X28034Y1326D01*
X27999Y1411D01*
X27943Y1484D01*
X27883Y1529D01*
X27900Y1579D01*
X28362D01*
X28444Y1497D01*
X28443Y1484D01*
X28387Y1411D01*
X28352Y1326D01*
X28340Y1234D01*
Y734D01*
X28352Y643D01*
X28387Y558D01*
X28443Y485D01*
X28516Y429D01*
X28602Y393D01*
X28693Y381D01*
X28784Y393D01*
X28869Y429D01*
X28943Y485D01*
X28999Y558D01*
X29034Y643D01*
X29046Y734D01*
Y1234D01*
X29034Y1326D01*
X28999Y1411D01*
X28943Y1484D01*
X28869Y1540D01*
X28805Y1567D01*
X28801Y1573D01*
X28641Y1733D01*
X28660Y1779D01*
X29225D01*
X29460Y1544D01*
X29457Y1494D01*
X29443Y1484D01*
X29387Y1411D01*
X29352Y1326D01*
X29340Y1234D01*
Y734D01*
X29352Y643D01*
X29387Y558D01*
X29443Y485D01*
X29516Y429D01*
X29602Y393D01*
X29693Y381D01*
X29784Y393D01*
X29869Y429D01*
X29943Y485D01*
X29999Y558D01*
X30034Y643D01*
X30046Y734D01*
Y1234D01*
X30034Y1326D01*
X30012Y1378D01*
X30055Y1406D01*
X30340Y1121D01*
Y734D01*
X30352Y643D01*
X30387Y558D01*
X30443Y485D01*
X30516Y429D01*
X30602Y393D01*
X30693Y381D01*
X30784Y393D01*
X30869Y429D01*
X30943Y485D01*
X30999Y558D01*
X31034Y643D01*
X31046Y734D01*
Y1234D01*
X31034Y1326D01*
X30999Y1411D01*
X30943Y1484D01*
X30869Y1540D01*
X30784Y1575D01*
X30693Y1587D01*
X30602Y1575D01*
X30516Y1540D01*
X30443Y1484D01*
X30412Y1482D01*
X29462Y2431D01*
X29413Y2464D01*
X29354Y2476D01*
X27977D01*
X27863Y2590D01*
X27895Y2629D01*
X27930Y2605D01*
X27992Y2593D01*
X31969D01*
X32031Y2605D01*
X32084Y2641D01*
X32399Y2956D01*
X32434Y3008D01*
X32447Y3071D01*
Y4764D01*
X32434Y4826D01*
X32399Y4879D01*
X32005Y5273D01*
X31952Y5308D01*
X31890Y5321D01*
X31052D01*
X30730Y5643D01*
Y6202D01*
X30254D01*
Y5609D01*
X30337D01*
X30341Y5587D01*
X30377Y5534D01*
X30869Y5042D01*
X30922Y5007D01*
X30984Y4994D01*
X31822D01*
X32120Y4696D01*
Y3138D01*
X31901Y2919D01*
X28060D01*
X27224Y3755D01*
Y3826D01*
X27460Y4062D01*
X27054Y4468D01*
X26808Y4222D01*
X26743D01*
X26567Y4398D01*
X26583Y4452D01*
X26628Y4461D01*
X26707Y4514D01*
X26759Y4592D01*
X26778Y4685D01*
X26759Y4778D01*
X26707Y4856D01*
X26688Y4869D01*
Y5117D01*
X26687Y5124D01*
X26733Y5148D01*
X26802Y5080D01*
X26784Y5053D01*
X26765Y4961D01*
X26784Y4868D01*
X26836Y4789D01*
X26915Y4737D01*
X27008Y4718D01*
X27101Y4737D01*
X27179Y4789D01*
X27232Y4868D01*
X27250Y4961D01*
X27232Y5053D01*
X27179Y5132D01*
X27112Y5177D01*
X27110Y5188D01*
X27100Y5202D01*
X27093Y5218D01*
X27084Y5227D01*
X27077Y5237D01*
X26766Y5548D01*
X26875Y5656D01*
X26929Y5639D01*
X26941Y5577D01*
X26994Y5498D01*
X27073Y5445D01*
X27134Y5433D01*
X27160Y5404D01*
X27169Y5397D01*
X27175Y5388D01*
X27328Y5251D01*
Y4742D01*
X27107Y4521D01*
X27513Y4115D01*
X27583Y4185D01*
X27603Y4165D01*
X27661Y4126D01*
X27729Y4113D01*
X27729Y4113D01*
X28896D01*
Y4004D01*
X29450D01*
Y4578D01*
X28896D01*
Y4470D01*
X27921D01*
X27905Y4507D01*
Y4507D01*
X27685Y4728D01*
Y5331D01*
X27684Y5336D01*
X27684Y5341D01*
X27677Y5370D01*
X27671Y5399D01*
X27668Y5404D01*
X27667Y5408D01*
X27649Y5432D01*
X27632Y5457D01*
X27628Y5460D01*
X27625Y5464D01*
X27422Y5646D01*
X27407Y5664D01*
X27408Y5669D01*
X27391Y5754D01*
X27415Y5804D01*
X28359D01*
X28417Y5816D01*
X28467Y5849D01*
X28758Y6140D01*
X28780Y6136D01*
X28872Y6154D01*
X28951Y6207D01*
X29004Y6285D01*
X29022Y6378D01*
X29004Y6471D01*
X28951Y6549D01*
X28872Y6602D01*
X28780Y6620D01*
X28687Y6602D01*
X28608Y6549D01*
X28556Y6471D01*
X28537Y6378D01*
X28541Y6356D01*
X28295Y6110D01*
X26742D01*
X26513Y6339D01*
X26800Y6625D01*
X27723D01*
X27735Y6607D01*
X27814Y6554D01*
X27907Y6536D01*
X28000Y6554D01*
X28078Y6607D01*
X28131Y6685D01*
X28149Y6778D01*
X28131Y6871D01*
X28078Y6950D01*
X28000Y7002D01*
X27907Y7021D01*
X27814Y7002D01*
X27735Y6950D01*
X27723Y6931D01*
X26965D01*
X26741Y7155D01*
X26868Y7282D01*
X26890Y7277D01*
X26983Y7296D01*
X27061Y7348D01*
X27114Y7427D01*
X27132Y7520D01*
X27114Y7612D01*
X27061Y7691D01*
X26983Y7744D01*
X26890Y7762D01*
D02*
G37*
G36*
X22743Y1581D02*
Y1034D01*
X23046D01*
Y1234D01*
X23034Y1326D01*
X22999Y1411D01*
X22943Y1484D01*
X22869Y1540D01*
X22784Y1575D01*
X22743Y1581D01*
D02*
G37*
G36*
X8101Y2035D02*
X7453Y1387D01*
X7917Y923D01*
X8097Y1103D01*
X8596Y604D01*
X8662Y560D01*
X8740Y544D01*
X8740Y544D01*
X8975D01*
Y461D01*
X9529D01*
Y1035D01*
X9444D01*
Y1241D01*
X9539D01*
X9545Y1241D01*
X9589D01*
X9595Y1241D01*
X9793D01*
Y1535D01*
Y1830D01*
X9595D01*
X9589Y1830D01*
X9545D01*
X9539Y1830D01*
X9038D01*
Y1241D01*
X9138D01*
Y1035D01*
X8975D01*
Y952D01*
X8825D01*
X8385Y1391D01*
X8565Y1571D01*
X8101Y2035D01*
D02*
G37*
G36*
X3987Y6113D02*
Y5930D01*
X4170D01*
X4161Y5973D01*
X4108Y6052D01*
X4030Y6104D01*
X3987Y6113D01*
D02*
G37*
G36*
X32187Y5856D02*
X31999D01*
Y5609D01*
X32187D01*
Y5856D01*
D02*
G37*
G36*
Y6202D02*
X31999D01*
Y5956D01*
X32187D01*
Y6202D01*
D02*
G37*
G36*
X31899D02*
X31711D01*
Y5956D01*
X31899D01*
Y6202D01*
D02*
G37*
G36*
X31694Y3555D02*
X31487D01*
Y3318D01*
X31694D01*
Y3555D01*
D02*
G37*
G36*
X31387D02*
X31180D01*
Y3318D01*
X31387D01*
Y3555D01*
D02*
G37*
G36*
X22715Y3750D02*
X22541Y3577D01*
X22685Y3433D01*
X22858Y3606D01*
X22715Y3750D01*
D02*
G37*
G36*
X31025Y3555D02*
X30510D01*
Y3421D01*
X30080D01*
Y3555D01*
X29526D01*
Y2981D01*
X30080D01*
Y3115D01*
X30510D01*
Y2981D01*
X31025D01*
Y3555D01*
D02*
G37*
G36*
X14033Y3454D02*
X13830D01*
Y3209D01*
X14033D01*
Y3454D01*
D02*
G37*
G36*
X31387Y3218D02*
X31180D01*
Y2981D01*
X31387D01*
Y3218D01*
D02*
G37*
G36*
X9893Y1830D02*
Y1585D01*
X10096D01*
Y1830D01*
X9893D01*
D02*
G37*
G36*
X16931Y3791D02*
X16376D01*
Y3217D01*
X16931D01*
Y3351D01*
X16984D01*
X17097Y3238D01*
X17146Y3205D01*
X17205Y3194D01*
X19304D01*
X19317Y3175D01*
X19395Y3122D01*
X19428Y3116D01*
Y3065D01*
X19395Y3059D01*
X19317Y3006D01*
X19304Y2988D01*
X16931D01*
Y3122D01*
X16376D01*
Y2548D01*
X16931D01*
Y2682D01*
X19304D01*
X19317Y2663D01*
X19395Y2611D01*
X19488Y2592D01*
X19581Y2611D01*
X19660Y2663D01*
X19712Y2742D01*
X19731Y2835D01*
X19712Y2927D01*
X19660Y3006D01*
X19581Y3059D01*
X19549Y3065D01*
Y3116D01*
X19581Y3122D01*
X19660Y3175D01*
X19712Y3254D01*
X19731Y3346D01*
X19712Y3439D01*
X19660Y3518D01*
X19581Y3570D01*
X19488Y3589D01*
X19395Y3570D01*
X19317Y3518D01*
X19304Y3499D01*
X17268D01*
X17155Y3612D01*
X17106Y3645D01*
X17047Y3657D01*
X16931D01*
Y3791D01*
D02*
G37*
G36*
X31694Y3218D02*
X31487D01*
Y2981D01*
X31694D01*
Y3218D01*
D02*
G37*
G36*
X29450Y3555D02*
X28896D01*
Y3446D01*
X28429D01*
X28361Y3492D01*
X28268Y3510D01*
X28175Y3492D01*
X28096Y3439D01*
X28044Y3361D01*
X28025Y3268D01*
X28044Y3175D01*
X28096Y3096D01*
X28175Y3044D01*
X28268Y3025D01*
X28361Y3044D01*
X28429Y3089D01*
X28896D01*
Y2981D01*
X29450D01*
Y3555D01*
D02*
G37*
G36*
X18139Y4271D02*
X17935D01*
Y4026D01*
X18139D01*
Y4271D01*
D02*
G37*
G36*
X31694Y4241D02*
X31487D01*
Y4004D01*
X31694D01*
Y4241D01*
D02*
G37*
G36*
X12037Y4620D02*
X11868D01*
Y4280D01*
X12037D01*
Y4620D01*
D02*
G37*
G36*
X10096Y1485D02*
X9893D01*
Y1241D01*
X10096D01*
Y1485D01*
D02*
G37*
G36*
X31387Y4241D02*
X31180D01*
Y4004D01*
X31387D01*
Y4241D01*
D02*
G37*
G36*
X22958Y3994D02*
X22785Y3821D01*
X22929Y3677D01*
X23102Y3850D01*
X22958Y3994D01*
D02*
G37*
G36*
X13830Y3799D02*
Y3554D01*
X14033D01*
Y3799D01*
X13830D01*
D02*
G37*
G36*
X10986Y3830D02*
X10471D01*
Y3696D01*
X10159D01*
Y3830D01*
X9605D01*
Y3256D01*
X10159D01*
Y3390D01*
X10471D01*
Y3256D01*
X10986D01*
Y3830D01*
D02*
G37*
G36*
X18139Y3926D02*
X17935D01*
Y3681D01*
X18139D01*
Y3926D01*
D02*
G37*
G36*
X28467Y8081D02*
X28323Y7937D01*
X28496Y7764D01*
X28640Y7908D01*
X28467Y8081D01*
D02*
G37*
G36*
X1969Y20084D02*
X1814Y20069D01*
X1665Y20024D01*
X1528Y19951D01*
X1408Y19852D01*
X1309Y19732D01*
X1236Y19595D01*
X1191Y19446D01*
X1176Y19291D01*
X1191Y19137D01*
X1236Y18988D01*
X1309Y18851D01*
X1408Y18731D01*
X1528Y18632D01*
X1665Y18559D01*
X1814Y18514D01*
X1969Y18499D01*
X2123Y18514D01*
X2272Y18559D01*
X2409Y18632D01*
X2529Y18731D01*
X2628Y18851D01*
X2701Y18988D01*
X2746Y19137D01*
X2761Y19291D01*
X2746Y19446D01*
X2701Y19595D01*
X2628Y19732D01*
X2529Y19852D01*
X2409Y19951D01*
X2272Y20024D01*
X2123Y20069D01*
X1969Y20084D01*
D02*
G37*
G36*
X22046Y934D02*
X21743D01*
Y388D01*
X21784Y393D01*
X21869Y429D01*
X21943Y485D01*
X21999Y558D01*
X22034Y643D01*
X22046Y734D01*
Y934D01*
D02*
G37*
G36*
X14193Y20587D02*
X14102Y20575D01*
X14016Y20540D01*
X13943Y20484D01*
X13887Y20411D01*
X13852Y20326D01*
X13840Y20234D01*
Y19734D01*
X13852Y19643D01*
X13887Y19558D01*
X13943Y19485D01*
X14016Y19429D01*
X14102Y19393D01*
X14193Y19381D01*
X14284Y19393D01*
X14369Y19429D01*
X14443Y19485D01*
X14499Y19558D01*
X14534Y19643D01*
X14546Y19734D01*
Y20234D01*
X14534Y20326D01*
X14499Y20411D01*
X14443Y20484D01*
X14369Y20540D01*
X14284Y20575D01*
X14193Y20587D01*
D02*
G37*
G36*
X13193D02*
X13102Y20575D01*
X13016Y20540D01*
X12943Y20484D01*
X12887Y20411D01*
X12852Y20326D01*
X12840Y20234D01*
Y19734D01*
X12852Y19643D01*
X12887Y19558D01*
X12943Y19485D01*
X13016Y19429D01*
X13102Y19393D01*
X13193Y19381D01*
X13284Y19393D01*
X13369Y19429D01*
X13443Y19485D01*
X13499Y19558D01*
X13534Y19643D01*
X13546Y19734D01*
Y20234D01*
X13534Y20326D01*
X13499Y20411D01*
X13443Y20484D01*
X13369Y20540D01*
X13284Y20575D01*
X13193Y20587D01*
D02*
G37*
G36*
X26780Y10937D02*
X26636Y10793D01*
X26809Y10620D01*
X26953Y10764D01*
X26780Y10937D01*
D02*
G37*
G36*
X31945Y10389D02*
X31793D01*
Y10034D01*
X32148D01*
Y10187D01*
X31945Y10389D01*
D02*
G37*
G36*
X31693D02*
X31540D01*
X31338Y10187D01*
Y10034D01*
X31693D01*
Y10389D01*
D02*
G37*
G36*
X25709Y12172D02*
X25616Y12153D01*
X25537Y12101D01*
X25485Y12022D01*
X25466Y11929D01*
X25485Y11836D01*
X25537Y11758D01*
X25616Y11705D01*
X25696Y11689D01*
X26055Y11331D01*
X26055Y11331D01*
X26113Y11292D01*
X26181Y11278D01*
X29769D01*
X30189Y10858D01*
X30189Y10858D01*
X30247Y10819D01*
X30315Y10806D01*
X30338D01*
Y10782D01*
X30540Y10579D01*
X30945D01*
X31148Y10782D01*
Y11187D01*
X30945Y11389D01*
X30540D01*
X30351Y11200D01*
X29969Y11583D01*
X29911Y11622D01*
X29843Y11635D01*
X26255D01*
X25949Y11941D01*
X25933Y12022D01*
X25880Y12101D01*
X25801Y12153D01*
X25709Y12172D01*
D02*
G37*
G36*
X27024Y10693D02*
X26880Y10549D01*
X27053Y10376D01*
X27197Y10520D01*
X27024Y10693D01*
D02*
G37*
G36*
X26693Y20587D02*
X26602Y20575D01*
X26516Y20540D01*
X26443Y20484D01*
X26387Y20411D01*
X26352Y20326D01*
X26340Y20234D01*
Y19734D01*
X26352Y19643D01*
X26387Y19558D01*
X26443Y19485D01*
X26516Y19429D01*
X26602Y19393D01*
X26693Y19381D01*
X26784Y19393D01*
X26869Y19429D01*
X26943Y19485D01*
X26999Y19558D01*
X27034Y19643D01*
X27046Y19734D01*
Y20234D01*
X27034Y20326D01*
X26999Y20411D01*
X26943Y20484D01*
X26869Y20540D01*
X26784Y20575D01*
X26693Y20587D01*
D02*
G37*
G36*
X25693D02*
X25602Y20575D01*
X25516Y20540D01*
X25443Y20484D01*
X25387Y20411D01*
X25352Y20326D01*
X25340Y20234D01*
Y19884D01*
X25080Y19624D01*
X25047Y19638D01*
X25035Y19649D01*
X25046Y19734D01*
Y20234D01*
X25034Y20326D01*
X24999Y20411D01*
X24943Y20484D01*
X24869Y20540D01*
X24784Y20575D01*
X24693Y20587D01*
X24602Y20575D01*
X24516Y20540D01*
X24443Y20484D01*
X24387Y20411D01*
X24352Y20326D01*
X24340Y20234D01*
Y19884D01*
X24080Y19624D01*
X24047Y19638D01*
X24035Y19649D01*
X24046Y19734D01*
Y20234D01*
X24034Y20326D01*
X23999Y20411D01*
X23943Y20484D01*
X23869Y20540D01*
X23784Y20575D01*
X23693Y20587D01*
X23602Y20575D01*
X23516Y20540D01*
X23443Y20484D01*
X23387Y20411D01*
X23352Y20326D01*
X23340Y20234D01*
Y19884D01*
X22590Y19134D01*
X22552Y19076D01*
X22538Y19008D01*
Y8992D01*
X22488Y8971D01*
X22226Y9234D01*
Y19386D01*
X22284Y19393D01*
X22369Y19429D01*
X22443Y19485D01*
X22499Y19558D01*
X22534Y19643D01*
X22546Y19734D01*
Y20234D01*
X22534Y20326D01*
X22499Y20411D01*
X22443Y20484D01*
X22369Y20540D01*
X22284Y20575D01*
X22193Y20587D01*
X22102Y20575D01*
X22016Y20540D01*
X21943Y20484D01*
X21887Y20411D01*
X21852Y20326D01*
X21840Y20234D01*
Y19734D01*
X21852Y19643D01*
X21869Y19602D01*
Y9216D01*
X21819Y9195D01*
X21371Y9643D01*
Y19430D01*
X21443Y19485D01*
X21499Y19558D01*
X21534Y19643D01*
X21546Y19734D01*
Y20234D01*
X21534Y20326D01*
X21499Y20411D01*
X21443Y20484D01*
X21369Y20540D01*
X21284Y20575D01*
X21193Y20587D01*
X21102Y20575D01*
X21016Y20540D01*
X20943Y20484D01*
X20887Y20411D01*
X20852Y20326D01*
X20840Y20234D01*
Y19734D01*
X20852Y19643D01*
X20887Y19558D01*
X20943Y19485D01*
X21014Y19430D01*
Y9625D01*
X20964Y9604D01*
X20371Y10197D01*
Y19430D01*
X20443Y19485D01*
X20499Y19558D01*
X20534Y19643D01*
X20546Y19734D01*
Y20234D01*
X20534Y20326D01*
X20499Y20411D01*
X20443Y20484D01*
X20369Y20540D01*
X20284Y20575D01*
X20193Y20587D01*
X20102Y20575D01*
X20016Y20540D01*
X19943Y20484D01*
X19887Y20411D01*
X19852Y20326D01*
X19840Y20234D01*
Y19734D01*
X19852Y19643D01*
X19887Y19558D01*
X19943Y19485D01*
X20014Y19430D01*
Y10179D01*
X19964Y10159D01*
X19371Y10752D01*
Y19430D01*
X19443Y19485D01*
X19499Y19558D01*
X19534Y19643D01*
X19546Y19734D01*
Y20234D01*
X19534Y20326D01*
X19499Y20411D01*
X19443Y20484D01*
X19369Y20540D01*
X19284Y20575D01*
X19193Y20587D01*
X19102Y20575D01*
X19016Y20540D01*
X18943Y20484D01*
X18887Y20411D01*
X18852Y20326D01*
X18840Y20234D01*
Y19734D01*
X18852Y19643D01*
X18887Y19558D01*
X18943Y19485D01*
X19014Y19430D01*
Y10734D01*
X18964Y10713D01*
X18371Y11306D01*
Y19430D01*
X18443Y19485D01*
X18499Y19558D01*
X18534Y19643D01*
X18546Y19734D01*
Y20234D01*
X18534Y20326D01*
X18499Y20411D01*
X18443Y20484D01*
X18369Y20540D01*
X18284Y20575D01*
X18193Y20587D01*
X18102Y20575D01*
X18016Y20540D01*
X17943Y20484D01*
X17887Y20411D01*
X17852Y20326D01*
X17840Y20234D01*
Y19734D01*
X17852Y19643D01*
X17887Y19558D01*
X17943Y19485D01*
X18014Y19430D01*
Y11232D01*
X18028Y11164D01*
X18067Y11106D01*
X22259Y6914D01*
Y6904D01*
X22237Y6879D01*
X22196Y6876D01*
X17371Y11700D01*
Y19430D01*
X17443Y19485D01*
X17499Y19558D01*
X17534Y19643D01*
X17546Y19734D01*
Y20234D01*
X17534Y20326D01*
X17499Y20411D01*
X17443Y20484D01*
X17369Y20540D01*
X17284Y20575D01*
X17193Y20587D01*
X17102Y20575D01*
X17016Y20540D01*
X16943Y20484D01*
X16887Y20411D01*
X16852Y20326D01*
X16840Y20234D01*
Y19734D01*
X16852Y19643D01*
X16887Y19558D01*
X16943Y19485D01*
X17014Y19430D01*
Y11626D01*
X17028Y11558D01*
X17067Y11500D01*
X22503Y6063D01*
X22256Y5816D01*
X22472Y5601D01*
X22489Y5548D01*
X22238Y5297D01*
X21412D01*
X20638Y6071D01*
X20580Y6110D01*
X20512Y6123D01*
X19685D01*
X19617Y6110D01*
X19559Y6071D01*
X19559Y6071D01*
X19266Y5778D01*
X19220Y5797D01*
Y7311D01*
X19746D01*
Y8151D01*
X19746Y8196D01*
X19784Y8228D01*
X21382Y6630D01*
Y6011D01*
X21364Y5998D01*
X21311Y5920D01*
X21293Y5827D01*
X21311Y5734D01*
X21364Y5655D01*
X21443Y5603D01*
X21535Y5584D01*
X21628Y5603D01*
X21707Y5655D01*
X21759Y5734D01*
X21778Y5827D01*
X21759Y5920D01*
X21707Y5998D01*
X21688Y6011D01*
Y6693D01*
X21677Y6751D01*
X21644Y6801D01*
X15346Y13099D01*
Y19419D01*
X15369Y19429D01*
X15443Y19485D01*
X15499Y19558D01*
X15534Y19643D01*
X15546Y19734D01*
Y20234D01*
X15534Y20326D01*
X15499Y20411D01*
X15443Y20484D01*
X15369Y20540D01*
X15284Y20575D01*
X15193Y20587D01*
X15102Y20575D01*
X15016Y20540D01*
X14943Y20484D01*
X14887Y20411D01*
X14852Y20326D01*
X14840Y20234D01*
Y19734D01*
X14852Y19643D01*
X14887Y19558D01*
X14943Y19485D01*
X15016Y19429D01*
X15040Y19419D01*
Y13035D01*
X15052Y12977D01*
X15085Y12927D01*
X19773Y8239D01*
X19741Y8200D01*
X19698Y8200D01*
X18860D01*
X17585Y9475D01*
X17519Y9519D01*
X17441Y9535D01*
X14191D01*
Y9626D01*
X13868D01*
X13500Y9993D01*
X13451Y10026D01*
X13392Y10038D01*
X10705D01*
X10646Y10026D01*
X10596Y9993D01*
X9970Y9366D01*
X9968Y9366D01*
X9918Y9333D01*
X9774Y9188D01*
X9741Y9139D01*
X9729Y9080D01*
Y8583D01*
X9741Y8524D01*
X9774Y8475D01*
X9989Y8260D01*
Y7991D01*
X10123D01*
Y7106D01*
X10028D01*
X10022Y7106D01*
X9978D01*
X9972Y7106D01*
X9774D01*
Y6811D01*
Y6516D01*
X9972D01*
X9978Y6516D01*
X10022D01*
X10028Y6516D01*
X10529D01*
Y7106D01*
X10429D01*
Y7991D01*
X10563D01*
Y8545D01*
X10143D01*
X10120Y8573D01*
X10141Y8620D01*
X10563D01*
Y9175D01*
X10559D01*
X10540Y9221D01*
X10851Y9532D01*
X11912D01*
Y9381D01*
X12165D01*
Y9331D01*
X12215D01*
Y9036D01*
X12419D01*
X12419Y9036D01*
X12463D01*
Y9036D01*
X12469Y9036D01*
X12564D01*
Y8397D01*
X11868D01*
Y7659D01*
X11130D01*
Y7223D01*
Y6908D01*
Y6593D01*
Y6334D01*
X10969D01*
X10896Y6407D01*
X10846Y6441D01*
X10787Y6452D01*
X9027D01*
Y6458D01*
X8453D01*
Y5904D01*
X9027D01*
Y6146D01*
X9471D01*
Y5916D01*
X9724D01*
Y5816D01*
X9471D01*
Y5657D01*
X9027D01*
Y5828D01*
X8453D01*
Y5704D01*
X7347D01*
X6447Y6604D01*
X6397Y6637D01*
X6339Y6649D01*
X5945D01*
X5886Y6637D01*
X5867Y6624D01*
X5767Y6724D01*
X5375Y6332D01*
X5781Y5926D01*
X6173Y6318D01*
X6173Y6318D01*
X6173Y6318D01*
X6214Y6343D01*
X6275D01*
X7175Y5443D01*
X7225Y5410D01*
X7283Y5398D01*
X8453D01*
Y5274D01*
X9027D01*
Y5351D01*
X10891D01*
X10912Y5301D01*
X10724Y5114D01*
X7162D01*
X6636Y5640D01*
X6724Y5728D01*
X6318Y6133D01*
X5926Y5741D01*
X6332Y5336D01*
X6420Y5423D01*
X6991Y4852D01*
X7040Y4819D01*
X7099Y4808D01*
X10787D01*
X10846Y4819D01*
X10896Y4852D01*
X11080Y5037D01*
X11130Y5018D01*
Y5018D01*
X11868D01*
Y4720D01*
X12037D01*
Y5060D01*
X11911D01*
Y5333D01*
Y5648D01*
Y5963D01*
Y6278D01*
Y6343D01*
X12181D01*
X13194Y5330D01*
Y5060D01*
X12137D01*
Y4670D01*
Y4280D01*
X12564D01*
Y4079D01*
X12181Y3696D01*
X11655D01*
Y3830D01*
X11140D01*
Y3256D01*
X11655D01*
Y3390D01*
X12237D01*
X12250Y3374D01*
X12260Y3343D01*
X11708Y2791D01*
X11655D01*
Y2925D01*
X11140D01*
Y2351D01*
X11655D01*
Y2485D01*
X11772D01*
X11830Y2497D01*
X11880Y2530D01*
X12929Y3578D01*
X12975Y3559D01*
Y3209D01*
X13075D01*
Y2898D01*
X12417Y2240D01*
X9866D01*
X9801Y2305D01*
X9821Y2351D01*
X10159D01*
Y2485D01*
X10471D01*
Y2351D01*
X10986D01*
Y2925D01*
X10471D01*
Y2791D01*
X10159D01*
Y2925D01*
X9605D01*
Y2582D01*
X9557Y2561D01*
X9529Y2583D01*
Y2925D01*
X9366D01*
Y3256D01*
X9529D01*
Y3830D01*
X8975D01*
Y3256D01*
X9060D01*
Y2925D01*
X8975D01*
Y2351D01*
X9323D01*
X9695Y1978D01*
X9745Y1945D01*
X9803Y1934D01*
X12480D01*
X12539Y1945D01*
X12588Y1978D01*
X13336Y2727D01*
X13370Y2776D01*
X13381Y2835D01*
Y3209D01*
X13476D01*
X13482Y3209D01*
X13526D01*
X13532Y3209D01*
X13730D01*
Y3504D01*
Y3799D01*
X13549D01*
X13526Y3799D01*
X13499Y3838D01*
Y4280D01*
X13611D01*
Y4670D01*
Y5060D01*
X13499D01*
Y5394D01*
X13488Y5452D01*
X13455Y5502D01*
X12352Y6604D01*
X12346Y6608D01*
X12362Y6658D01*
X13346D01*
X13405Y6670D01*
X13455Y6703D01*
X14085Y7333D01*
X14118Y7382D01*
X14129Y7441D01*
Y7617D01*
X14467D01*
Y7223D01*
Y6908D01*
Y6593D01*
Y6278D01*
Y5963D01*
Y5648D01*
Y5333D01*
Y5286D01*
X15248D01*
Y5333D01*
Y5648D01*
Y5963D01*
Y6278D01*
Y6593D01*
Y6908D01*
Y7221D01*
X15251Y7224D01*
X15298Y7242D01*
X15359Y7181D01*
Y3071D01*
X15371Y3012D01*
X15404Y2963D01*
X15640Y2727D01*
X15690Y2693D01*
X15746Y2682D01*
Y2548D01*
X16301D01*
Y3122D01*
X15746D01*
Y3118D01*
X15700Y3099D01*
X15665Y3134D01*
Y3576D01*
X15709Y3594D01*
X15746Y3563D01*
Y3217D01*
X16301D01*
Y3791D01*
X15953D01*
X15940Y3804D01*
Y7402D01*
X15929Y7460D01*
X15896Y7510D01*
X15290Y8115D01*
X15240Y8148D01*
X15182Y8160D01*
X14509D01*
Y8397D01*
X14090D01*
Y9036D01*
X14191D01*
Y9127D01*
X17356D01*
X18286Y8197D01*
Y7311D01*
X18812D01*
Y5720D01*
X18729D01*
Y5205D01*
X18632Y5108D01*
X18599Y5059D01*
X18587Y5000D01*
Y4271D01*
X18493D01*
X18487Y4271D01*
X18443D01*
X18437Y4271D01*
X18239D01*
Y3976D01*
Y3681D01*
X18437D01*
X18443Y3681D01*
X18487D01*
X18493Y3681D01*
X18994D01*
Y4271D01*
X18893D01*
Y4415D01*
X18939Y4434D01*
X20489Y2884D01*
Y2015D01*
X18520D01*
X18442Y1999D01*
X18375Y1955D01*
X17945Y1525D01*
X17892Y1543D01*
X17881Y1598D01*
X17837Y1664D01*
X17585Y1916D01*
X17519Y1960D01*
X17441Y1976D01*
X16102D01*
X16102Y1976D01*
X16024Y1960D01*
X15958Y1916D01*
X15958Y1916D01*
X14994Y952D01*
X12894D01*
X12866Y946D01*
X12577D01*
Y550D01*
X12866D01*
X12894Y544D01*
X15079D01*
X15157Y560D01*
X15223Y604D01*
X16187Y1568D01*
X16470D01*
X16487Y1518D01*
X16443Y1484D01*
X16387Y1411D01*
X16352Y1326D01*
X16340Y1234D01*
Y734D01*
X16352Y643D01*
X16387Y558D01*
X16443Y485D01*
X16516Y429D01*
X16602Y393D01*
X16693Y381D01*
X16784Y393D01*
X16869Y429D01*
X16943Y485D01*
X16999Y558D01*
X17034Y643D01*
X17046Y734D01*
Y1234D01*
X17034Y1326D01*
X16999Y1411D01*
X16943Y1484D01*
X16898Y1518D01*
X16915Y1568D01*
X17356D01*
X17442Y1482D01*
X17387Y1411D01*
X17352Y1326D01*
X17340Y1234D01*
Y734D01*
X17352Y643D01*
X17387Y558D01*
X17443Y485D01*
X17516Y429D01*
X17602Y393D01*
X17693Y381D01*
X17784Y393D01*
X17869Y429D01*
X17943Y485D01*
X17999Y558D01*
X18034Y643D01*
X18046Y734D01*
Y1049D01*
X18298Y1301D01*
X18346Y1278D01*
X18340Y1234D01*
Y734D01*
X18352Y643D01*
X18387Y558D01*
X18443Y485D01*
X18516Y429D01*
X18602Y393D01*
X18693Y381D01*
X18784Y393D01*
X18869Y429D01*
X18943Y485D01*
X18999Y558D01*
X19034Y643D01*
X19046Y734D01*
Y1234D01*
X19034Y1326D01*
X18999Y1411D01*
X18943Y1484D01*
X18869Y1540D01*
X18828Y1557D01*
X18838Y1607D01*
X19548D01*
X19558Y1557D01*
X19516Y1540D01*
X19443Y1484D01*
X19387Y1411D01*
X19352Y1326D01*
X19340Y1234D01*
Y734D01*
X19352Y643D01*
X19387Y558D01*
X19443Y485D01*
X19516Y429D01*
X19602Y393D01*
X19693Y381D01*
X19784Y393D01*
X19869Y429D01*
X19943Y485D01*
X19999Y558D01*
X20034Y643D01*
X20046Y734D01*
Y1234D01*
X20034Y1326D01*
X19999Y1411D01*
X19943Y1484D01*
X19869Y1540D01*
X19828Y1557D01*
X19838Y1607D01*
X20427D01*
X20472Y1562D01*
X20469Y1504D01*
X20443Y1484D01*
X20387Y1411D01*
X20352Y1326D01*
X20340Y1234D01*
Y734D01*
X20352Y643D01*
X20387Y558D01*
X20443Y485D01*
X20516Y429D01*
X20602Y393D01*
X20693Y381D01*
X20784Y393D01*
X20869Y429D01*
X20943Y485D01*
X20999Y558D01*
X21034Y643D01*
X21046Y734D01*
Y1234D01*
X21034Y1326D01*
X20999Y1411D01*
X20943Y1484D01*
X20897Y1519D01*
Y1630D01*
Y2968D01*
X20890Y3003D01*
X20936Y3028D01*
X21391Y2572D01*
X21457Y2528D01*
X21535Y2513D01*
X23026D01*
X23489Y2049D01*
Y1519D01*
X23443Y1484D01*
X23387Y1411D01*
X23352Y1326D01*
X23340Y1234D01*
Y734D01*
X23352Y643D01*
X23387Y558D01*
X23443Y485D01*
X23516Y429D01*
X23602Y393D01*
X23693Y381D01*
X23784Y393D01*
X23869Y429D01*
X23943Y485D01*
X23999Y558D01*
X24034Y643D01*
X24046Y734D01*
Y1234D01*
X24034Y1326D01*
X23999Y1411D01*
X23943Y1484D01*
X23897Y1519D01*
Y2134D01*
X23881Y2212D01*
X23837Y2278D01*
X23254Y2861D01*
X23188Y2905D01*
X23110Y2920D01*
X21620D01*
X20125Y4415D01*
Y4831D01*
X20208D01*
Y5720D01*
X20208D01*
X20217Y5766D01*
X20438D01*
X21212Y4992D01*
X21270Y4953D01*
X21339Y4940D01*
X22312D01*
X22380Y4953D01*
X22438Y4992D01*
X22742Y5296D01*
X22795Y5278D01*
X22985Y5087D01*
X22425Y4527D01*
X22354Y4598D01*
X22119Y4364D01*
X21916D01*
X21813Y4466D01*
X21817Y4488D01*
X21799Y4581D01*
X21746Y4660D01*
X21668Y4712D01*
X21575Y4731D01*
X21482Y4712D01*
X21403Y4660D01*
X21351Y4581D01*
X21332Y4488D01*
X21351Y4395D01*
X21403Y4317D01*
X21482Y4264D01*
X21575Y4246D01*
X21597Y4250D01*
X21744Y4102D01*
X21794Y4069D01*
X21852Y4058D01*
X22061D01*
X22291Y3827D01*
X22296Y3823D01*
X22327Y3792D01*
X22331Y3787D01*
X22471Y3648D01*
X22679Y3856D01*
X22888Y4065D01*
X22748Y4205D01*
X22744Y4209D01*
X22713Y4240D01*
X22708Y4244D01*
X22641Y4311D01*
X23202Y4871D01*
X23266Y4807D01*
X23542Y5083D01*
X23818Y5359D01*
X23699Y5478D01*
X23445Y5732D01*
X23464Y5778D01*
X23596D01*
X23664Y5792D01*
X23722Y5831D01*
X25324Y7433D01*
X25377Y7415D01*
X25403Y7389D01*
X25679Y7665D01*
X25749Y7594D01*
X25473Y7318D01*
X25507Y7285D01*
X25815Y6977D01*
X25848Y6944D01*
X26124Y7220D01*
X26400Y7496D01*
X26321Y7575D01*
X26783Y8037D01*
X26859Y7961D01*
X26936Y8038D01*
X27738Y7236D01*
X27796Y7197D01*
X27864Y7184D01*
X27864Y7184D01*
X31890D01*
X31958Y7197D01*
X32016Y7236D01*
X32961Y8181D01*
X32999Y8239D01*
X33013Y8307D01*
X33013Y8307D01*
Y11417D01*
X33013Y11417D01*
X32999Y11486D01*
X32961Y11543D01*
X32961Y11543D01*
X32394Y12110D01*
X32336Y12149D01*
X32268Y12163D01*
X32148D01*
Y12187D01*
X31945Y12389D01*
X31540D01*
X31459Y12308D01*
X31413Y12327D01*
Y12677D01*
X31401Y12736D01*
X31368Y12785D01*
X31171Y12982D01*
X31122Y13015D01*
X31063Y13027D01*
X26326D01*
X26313Y13045D01*
X26235Y13098D01*
X26142Y13116D01*
X26049Y13098D01*
X25970Y13045D01*
X25918Y12967D01*
X25899Y12874D01*
X25918Y12781D01*
X25921Y12777D01*
X25885Y12741D01*
X25880Y12744D01*
X25787Y12762D01*
X25695Y12744D01*
X25616Y12691D01*
X25563Y12612D01*
X25545Y12520D01*
X25563Y12427D01*
X25616Y12348D01*
X25695Y12296D01*
X25787Y12277D01*
X25809Y12282D01*
X26215Y11876D01*
X26264Y11843D01*
X26323Y11831D01*
X30338D01*
Y11782D01*
X30540Y11579D01*
X30945D01*
X31061Y11694D01*
X31107Y11675D01*
Y11467D01*
X31119Y11409D01*
X31152Y11359D01*
X31338Y11173D01*
Y10782D01*
X31540Y10579D01*
X31945D01*
X32148Y10782D01*
Y11187D01*
X31945Y11389D01*
X31554D01*
X31413Y11531D01*
Y11641D01*
X31459Y11661D01*
X31540Y11579D01*
X31945D01*
X32148Y11782D01*
Y11796D01*
X32198Y11802D01*
X32656Y11343D01*
Y8381D01*
X32230Y7955D01*
X32187Y7982D01*
X32187Y8016D01*
Y8218D01*
X31999D01*
Y7971D01*
X32138D01*
X32175Y7971D01*
X32203Y7928D01*
X31816Y7541D01*
X27938D01*
X27188Y8291D01*
X27276Y8378D01*
X26921Y8732D01*
X26917Y8736D01*
X26886Y8767D01*
X26882Y8772D01*
X26742Y8911D01*
X26533Y8703D01*
X26325Y8494D01*
X26373Y8446D01*
X26341Y8408D01*
X26274Y8452D01*
X26181Y8471D01*
X26088Y8452D01*
X26020Y8407D01*
X25867D01*
X25799Y8393D01*
X25741Y8355D01*
X25736Y8350D01*
X25686Y8371D01*
Y8888D01*
X25973Y9175D01*
X26481D01*
X26494Y9161D01*
X26494Y9093D01*
X26354Y8953D01*
X26498Y8809D01*
X26671Y8982D01*
X26561Y9093D01*
X26561Y9161D01*
X26574Y9175D01*
X26652D01*
X26991Y8836D01*
X27040Y8803D01*
X27099Y8791D01*
X27223D01*
X27281Y8803D01*
X27299Y8814D01*
X27472Y8641D01*
X27703Y8872D01*
X27738Y8836D01*
X27774Y8872D01*
X28039Y8606D01*
X28219Y8785D01*
X28341Y8908D01*
X28574Y8676D01*
X28473Y8575D01*
X28468Y8571D01*
X28437Y8539D01*
X28433Y8535D01*
X28293Y8395D01*
X28502Y8187D01*
X28710Y7978D01*
X28850Y8118D01*
X28854Y8122D01*
X28886Y8154D01*
X28890Y8158D01*
X29244Y8512D01*
X28827Y8929D01*
X28790Y8892D01*
X28558Y9124D01*
X28680Y9247D01*
X28149Y9778D01*
X27865Y9494D01*
X27768D01*
X27749Y9540D01*
X27802Y9593D01*
X27536Y9859D01*
X27270Y10124D01*
X27075Y9929D01*
X26969Y9823D01*
X26734Y10057D01*
X26803Y10126D01*
X26807Y10130D01*
X26838Y10161D01*
X26842Y10166D01*
X26982Y10305D01*
X26774Y10514D01*
X26565Y10722D01*
X26425Y10583D01*
X26421Y10578D01*
X26390Y10547D01*
X26386Y10543D01*
X26032Y10189D01*
X26449Y9772D01*
X26518Y9841D01*
X26632Y9727D01*
X26613Y9681D01*
X25827D01*
X25768Y9669D01*
X25719Y9636D01*
X24938Y8855D01*
X24905Y8805D01*
X24893Y8747D01*
Y8453D01*
X24646Y8206D01*
X24155Y8697D01*
Y18194D01*
X25445Y19484D01*
X25516Y19429D01*
X25602Y19393D01*
X25693Y19381D01*
X25784Y19393D01*
X25869Y19429D01*
X25943Y19485D01*
X25999Y19558D01*
X26034Y19643D01*
X26046Y19734D01*
Y20234D01*
X26034Y20326D01*
X25999Y20411D01*
X25943Y20484D01*
X25869Y20540D01*
X25784Y20575D01*
X25693Y20587D01*
D02*
G37*
G36*
X16143Y19934D02*
X15840D01*
Y19734D01*
X15852Y19643D01*
X15887Y19558D01*
X15943Y19485D01*
X16016Y19429D01*
X16102Y19393D01*
X16143Y19388D01*
Y19934D01*
D02*
G37*
G36*
X16243Y20581D02*
Y20034D01*
X16546D01*
Y20234D01*
X16534Y20326D01*
X16499Y20411D01*
X16443Y20484D01*
X16369Y20540D01*
X16284Y20575D01*
X16243Y20581D01*
D02*
G37*
G36*
X16143D02*
X16102Y20575D01*
X16016Y20540D01*
X15943Y20484D01*
X15887Y20411D01*
X15852Y20326D01*
X15840Y20234D01*
Y20034D01*
X16143D01*
Y20581D01*
D02*
G37*
G36*
X16546Y19934D02*
X16243D01*
Y19388D01*
X16284Y19393D01*
X16369Y19429D01*
X16443Y19485D01*
X16499Y19558D01*
X16534Y19643D01*
X16546Y19734D01*
Y19934D01*
D02*
G37*
G36*
X28693Y20587D02*
X28602Y20575D01*
X28516Y20540D01*
X28443Y20484D01*
X28387Y20411D01*
X28352Y20326D01*
X28340Y20234D01*
Y19734D01*
X28352Y19643D01*
X28387Y19558D01*
X28443Y19485D01*
X28516Y19429D01*
X28602Y19393D01*
X28693Y19381D01*
X28784Y19393D01*
X28869Y19429D01*
X28943Y19485D01*
X28999Y19558D01*
X29034Y19643D01*
X29046Y19734D01*
Y20234D01*
X29034Y20326D01*
X28999Y20411D01*
X28943Y20484D01*
X28869Y20540D01*
X28784Y20575D01*
X28693Y20587D01*
D02*
G37*
G36*
X27693D02*
X27602Y20575D01*
X27516Y20540D01*
X27443Y20484D01*
X27387Y20411D01*
X27352Y20326D01*
X27340Y20234D01*
Y19734D01*
X27352Y19643D01*
X27387Y19558D01*
X27443Y19485D01*
X27516Y19429D01*
X27602Y19393D01*
X27693Y19381D01*
X27784Y19393D01*
X27869Y19429D01*
X27943Y19485D01*
X27999Y19558D01*
X28034Y19643D01*
X28046Y19734D01*
Y20234D01*
X28034Y20326D01*
X27999Y20411D01*
X27943Y20484D01*
X27869Y20540D01*
X27784Y20575D01*
X27693Y20587D01*
D02*
G37*
G36*
X30693D02*
X30602Y20575D01*
X30516Y20540D01*
X30443Y20484D01*
X30387Y20411D01*
X30352Y20326D01*
X30340Y20234D01*
Y19734D01*
X30352Y19643D01*
X30387Y19558D01*
X30443Y19485D01*
X30516Y19429D01*
X30602Y19393D01*
X30693Y19381D01*
X30784Y19393D01*
X30869Y19429D01*
X30943Y19485D01*
X30999Y19558D01*
X31034Y19643D01*
X31046Y19734D01*
Y20234D01*
X31034Y20326D01*
X30999Y20411D01*
X30943Y20484D01*
X30869Y20540D01*
X30784Y20575D01*
X30693Y20587D01*
D02*
G37*
G36*
X29693D02*
X29602Y20575D01*
X29516Y20540D01*
X29443Y20484D01*
X29387Y20411D01*
X29352Y20326D01*
X29340Y20234D01*
Y19734D01*
X29352Y19643D01*
X29387Y19558D01*
X29443Y19485D01*
X29516Y19429D01*
X29602Y19393D01*
X29693Y19381D01*
X29784Y19393D01*
X29869Y19429D01*
X29943Y19485D01*
X29999Y19558D01*
X30034Y19643D01*
X30046Y19734D01*
Y20234D01*
X30034Y20326D01*
X29999Y20411D01*
X29943Y20484D01*
X29869Y20540D01*
X29784Y20575D01*
X29693Y20587D01*
D02*
G37*
G36*
X21743Y1581D02*
Y1034D01*
X22046D01*
Y1234D01*
X22034Y1326D01*
X21999Y1411D01*
X21943Y1484D01*
X21869Y1540D01*
X21784Y1575D01*
X21743Y1581D01*
D02*
G37*
G36*
X27738Y8766D02*
X27543Y8570D01*
X27773Y8340D01*
X27969Y8535D01*
X27738Y8766D01*
D02*
G37*
G36*
X26283Y8882D02*
X26110Y8709D01*
X26254Y8565D01*
X26427Y8738D01*
X26283Y8882D01*
D02*
G37*
G36*
X22643Y1581D02*
X22602Y1575D01*
X22516Y1540D01*
X22443Y1484D01*
X22387Y1411D01*
X22352Y1326D01*
X22340Y1234D01*
Y1034D01*
X22643D01*
Y1581D01*
D02*
G37*
G36*
X32187Y8565D02*
X31999D01*
Y8318D01*
X32187D01*
Y8565D01*
D02*
G37*
G36*
X30945Y10389D02*
X30540D01*
X30338Y10187D01*
Y9782D01*
X30338Y9781D01*
X30329Y9733D01*
Y8565D01*
X30254D01*
Y7971D01*
X30730D01*
Y8565D01*
X30655D01*
Y9579D01*
X30945D01*
X31148Y9782D01*
Y10187D01*
X30945Y10389D01*
D02*
G37*
G36*
X31899Y8218D02*
X31711D01*
Y7971D01*
X31899D01*
Y8218D01*
D02*
G37*
G36*
Y8565D02*
X31711D01*
Y8318D01*
X31899D01*
Y8565D01*
D02*
G37*
G36*
X28223Y8325D02*
X28079Y8181D01*
X28252Y8008D01*
X28396Y8152D01*
X28223Y8325D01*
D02*
G37*
G36*
X21643Y1581D02*
X21602Y1575D01*
X21516Y1540D01*
X21443Y1484D01*
X21387Y1411D01*
X21352Y1326D01*
X21340Y1234D01*
Y1034D01*
X21643D01*
Y1581D01*
D02*
G37*
G36*
X32148Y9934D02*
X31793D01*
Y9579D01*
X31945D01*
X32148Y9782D01*
Y9934D01*
D02*
G37*
G36*
X31693D02*
X31338D01*
Y9782D01*
X31540Y9579D01*
X31693D01*
Y9934D01*
D02*
G37*
G36*
X27537Y10391D02*
X27341Y10195D01*
X27571Y9965D01*
X27767Y10160D01*
X27537Y10391D01*
D02*
G37*
G36*
X27838Y10090D02*
X27642Y9894D01*
X27872Y9664D01*
X28068Y9859D01*
X27838Y10090D01*
D02*
G37*
G36*
X23046Y934D02*
X22743D01*
Y388D01*
X22784Y393D01*
X22869Y429D01*
X22943Y485D01*
X22999Y558D01*
X23034Y643D01*
X23046Y734D01*
Y934D01*
D02*
G37*
G36*
X22643D02*
X22340D01*
Y734D01*
X22352Y643D01*
X22387Y558D01*
X22443Y485D01*
X22516Y429D01*
X22602Y393D01*
X22643Y388D01*
Y934D01*
D02*
G37*
G36*
X10159Y1035D02*
X9605D01*
Y461D01*
X10159D01*
Y544D01*
X11988D01*
X12016Y550D01*
X12305D01*
Y946D01*
X12016D01*
X11988Y952D01*
X10159D01*
Y1035D01*
D02*
G37*
G36*
X12115Y9281D02*
X11912D01*
Y9036D01*
X12115D01*
Y9281D01*
D02*
G37*
G36*
X21643Y934D02*
X21340D01*
Y734D01*
X21352Y643D01*
X21387Y558D01*
X21443Y485D01*
X21516Y429D01*
X21602Y393D01*
X21643Y388D01*
Y934D01*
D02*
G37*
%LPD*%
G36*
X25398Y4109D02*
Y3937D01*
X25410Y3878D01*
X25443Y3829D01*
X27641Y1631D01*
X27637Y1602D01*
X27626Y1578D01*
X27602Y1575D01*
X27516Y1540D01*
X27504Y1531D01*
X25199Y3836D01*
Y3980D01*
X25348Y4129D01*
X25398Y4109D01*
D02*
G37*
G36*
X24516Y19429D02*
X24602Y19393D01*
X24693Y19381D01*
X24778Y19392D01*
X24790Y19380D01*
X24803Y19347D01*
X23850Y18394D01*
X23812Y18336D01*
X23798Y18268D01*
Y8623D01*
X23748Y8602D01*
X23604Y8747D01*
Y18643D01*
X24445Y19484D01*
X24516Y19429D01*
D02*
G37*
G36*
X23516D02*
X23602Y19393D01*
X23693Y19381D01*
X23778Y19392D01*
X23790Y19380D01*
X23803Y19347D01*
X23299Y18843D01*
X23260Y18785D01*
X23247Y18717D01*
Y8729D01*
X23197Y8708D01*
X22895Y9010D01*
Y18934D01*
X23445Y19484D01*
X23516Y19429D01*
D02*
G37*
G36*
X31107Y12614D02*
Y12293D01*
X31061Y12274D01*
X30945Y12389D01*
X30540D01*
X30338Y12187D01*
Y12137D01*
X26386D01*
X26026Y12498D01*
X26030Y12520D01*
X26011Y12612D01*
X26008Y12617D01*
X26044Y12653D01*
X26049Y12650D01*
X26142Y12632D01*
X26235Y12650D01*
X26313Y12703D01*
X26326Y12721D01*
X31000D01*
X31107Y12614D01*
D02*
G37*
G36*
X24838Y7953D02*
X25054Y7738D01*
X25072Y7685D01*
X23522Y6135D01*
X23119D01*
X23119Y6135D01*
X23054Y6122D01*
X22838Y6339D01*
X23031Y6531D01*
X23254Y6754D01*
X23476Y6977D01*
X23699Y7200D01*
X23922Y7422D01*
X24144Y7645D01*
X24367Y7868D01*
X24646Y8146D01*
X24838Y7953D01*
D02*
G37*
G36*
X19634Y5576D02*
Y4831D01*
X19717D01*
Y4331D01*
X19724Y4296D01*
X19678Y4272D01*
X19220Y4730D01*
Y4831D01*
X19303D01*
Y5310D01*
X19588Y5596D01*
X19634Y5576D01*
D02*
G37*
G36*
X13389Y9672D02*
X13370Y9626D01*
X13132D01*
Y9381D01*
X13386D01*
Y9331D01*
X13436D01*
Y9036D01*
X13639D01*
X13639Y9036D01*
X13683D01*
Y9036D01*
X13689Y9036D01*
X13784D01*
Y8397D01*
X13082D01*
Y8007D01*
Y7617D01*
X13823D01*
Y7504D01*
X13283Y6964D01*
X11911D01*
Y7223D01*
Y7617D01*
X12981D01*
Y8007D01*
Y8397D01*
X12869D01*
Y9036D01*
X12970D01*
Y9626D01*
X12795D01*
X12735Y9686D01*
X12754Y9732D01*
X13329D01*
X13389Y9672D01*
D02*
G37*
%LPC*%
G36*
X13336Y9281D02*
X13132D01*
Y9036D01*
X13336D01*
Y9281D01*
D02*
G37*
G36*
X13218Y8651D02*
X13035D01*
X13044Y8608D01*
X13096Y8529D01*
X13175Y8477D01*
X13218Y8468D01*
Y8651D01*
D02*
G37*
G36*
X13318Y8933D02*
Y8751D01*
X13500D01*
X13492Y8794D01*
X13439Y8872D01*
X13361Y8925D01*
X13318Y8933D01*
D02*
G37*
G36*
X13500Y8651D02*
X13318D01*
Y8468D01*
X13361Y8477D01*
X13439Y8529D01*
X13492Y8608D01*
X13500Y8651D01*
D02*
G37*
G36*
X13218Y8933D02*
X13175Y8925D01*
X13096Y8872D01*
X13044Y8794D01*
X13035Y8751D01*
X13218D01*
Y8933D01*
D02*
G37*
%LPD*%
D10*
X5774Y6325D02*
D03*
X5328Y5880D02*
D03*
X6325Y5735D02*
D03*
X5880Y5289D02*
D03*
X27506Y4514D02*
D03*
X27061Y4069D02*
D03*
D11*
X8740Y5551D02*
D03*
Y6181D02*
D03*
X10276Y8898D02*
D03*
Y8268D02*
D03*
D12*
X16654Y3504D02*
D03*
X16024D02*
D03*
X16654Y2835D02*
D03*
X16024D02*
D03*
X29803Y3268D02*
D03*
X29173D02*
D03*
X29803Y4291D02*
D03*
X29173D02*
D03*
X9882Y748D02*
D03*
X9252D02*
D03*
Y2638D02*
D03*
X9882D02*
D03*
X9252Y3543D02*
D03*
X9882D02*
D03*
D13*
X31437Y3268D02*
D03*
X30768D02*
D03*
X31437Y4291D02*
D03*
X30768D02*
D03*
X10728Y2638D02*
D03*
X11398D02*
D03*
X10728Y3543D02*
D03*
X11398D02*
D03*
D14*
X9724Y5866D02*
D03*
X10276D02*
D03*
X9724Y6811D02*
D03*
X10276D02*
D03*
X13386Y9331D02*
D03*
X13937D02*
D03*
X13780Y3504D02*
D03*
X13228D02*
D03*
X9291Y1535D02*
D03*
X9843D02*
D03*
X12165Y9331D02*
D03*
X12717D02*
D03*
X18189Y3976D02*
D03*
X18740D02*
D03*
D15*
X4022Y2068D02*
D03*
X2074Y4017D02*
D03*
D16*
X3431Y2868D02*
D03*
X2874Y3425D02*
D03*
D17*
X28184Y9282D02*
D03*
X27571Y9894D02*
D03*
X27126Y9449D02*
D03*
X27738Y8836D02*
D03*
D18*
X26605Y6739D02*
D03*
X26382Y6962D02*
D03*
X26160Y7184D02*
D03*
X25937Y7407D02*
D03*
X25714Y7630D02*
D03*
X25491Y7852D02*
D03*
X25269Y8075D02*
D03*
X25046Y8298D02*
D03*
X22686Y5938D02*
D03*
X22909Y5716D02*
D03*
X23132Y5493D02*
D03*
X23354Y5270D02*
D03*
X23577Y5047D02*
D03*
X23800Y4825D02*
D03*
X24023Y4602D02*
D03*
X24245Y4379D02*
D03*
D19*
Y8298D02*
D03*
X24023Y8075D02*
D03*
X23800Y7852D02*
D03*
X23577Y7630D02*
D03*
X23354Y7407D02*
D03*
X23132Y7184D02*
D03*
X22909Y6962D02*
D03*
X22686Y6739D02*
D03*
X25046Y4379D02*
D03*
X25269Y4602D02*
D03*
X25491Y4825D02*
D03*
X25714Y5047D02*
D03*
X25937Y5270D02*
D03*
X26160Y5493D02*
D03*
X26382Y5716D02*
D03*
X26605Y5938D02*
D03*
D20*
X26498Y8738D02*
D03*
X26888Y8348D02*
D03*
X22715Y3821D02*
D03*
X22325Y4211D02*
D03*
D21*
X28467Y8152D02*
D03*
X28856Y8541D02*
D03*
X26419Y10159D02*
D03*
X26809Y10549D02*
D03*
D22*
X7188Y2300D02*
D03*
X8009Y1479D02*
D03*
D23*
X11520Y7441D02*
D03*
Y7126D02*
D03*
Y6811D02*
D03*
Y6496D02*
D03*
Y6181D02*
D03*
Y5866D02*
D03*
Y5551D02*
D03*
Y5236D02*
D03*
X14857D02*
D03*
Y5551D02*
D03*
Y5866D02*
D03*
Y6181D02*
D03*
Y6496D02*
D03*
Y6811D02*
D03*
Y7126D02*
D03*
Y7441D02*
D03*
D24*
X12087Y4670D02*
D03*
X12402D02*
D03*
X12717D02*
D03*
X13031D02*
D03*
X13346D02*
D03*
X13661D02*
D03*
X13976D02*
D03*
X14291D02*
D03*
Y8007D02*
D03*
X13976D02*
D03*
X13661D02*
D03*
X13346D02*
D03*
X13031D02*
D03*
X12717D02*
D03*
X12402D02*
D03*
X12087D02*
D03*
D25*
X12894Y748D02*
D03*
X11988D02*
D03*
D26*
X18110Y5276D02*
D03*
X19016D02*
D03*
X19921D02*
D03*
D27*
X19016Y7756D02*
D03*
D28*
X30492Y5906D02*
D03*
Y8268D02*
D03*
X31949Y5906D02*
D03*
Y8268D02*
D03*
D29*
X27620Y9341D02*
X28184D01*
X26605Y6778D02*
X27907D01*
X9882Y8583D02*
X10276Y8189D01*
X9213Y2638D02*
Y3504D01*
X26605Y5957D02*
X28359D01*
X10748Y5866D02*
X11292D01*
X10276D02*
X10748D01*
X11292D02*
X11339Y5819D01*
X9882Y9080D02*
X10026Y9225D01*
X10705Y9885D02*
X13392D01*
X10076Y9256D02*
X10705Y9885D01*
X10076Y9249D02*
Y9256D01*
X10052Y9225D02*
X10076Y9249D01*
X9882Y8583D02*
Y9080D01*
X10026Y9225D02*
X10052D01*
X13392Y9885D02*
X13937Y9340D01*
X12520Y9685D02*
X12717Y9488D01*
X10787Y9685D02*
X12520D01*
X10276Y9173D02*
X10787Y9685D01*
X10276Y8898D02*
Y9173D01*
X12717Y9331D02*
Y9488D01*
X26715Y9328D02*
X27099Y8944D01*
X25910Y9328D02*
X26715D01*
X25534Y8951D02*
X25910Y9328D01*
X25534Y8340D02*
Y8951D01*
X27047Y9528D02*
X27126Y9449D01*
X26419Y10156D02*
X27047Y9528D01*
X25827D02*
X27047D01*
X25046Y8747D02*
X25827Y9528D01*
X25269Y8075D02*
X25534Y8340D01*
X25046Y8298D02*
Y8747D01*
X9252Y748D02*
X9291Y787D01*
Y1535D01*
X18740Y3976D02*
Y5000D01*
X19016Y5276D01*
X14857Y7441D02*
X15315D01*
X15512Y7244D01*
Y3071D02*
Y7244D01*
Y3071D02*
X15748Y2835D01*
X16024D01*
X16654D02*
X19488D01*
X16654Y3504D02*
X17047D01*
X17205Y3346D01*
X19488D01*
X26969Y5129D02*
X27008Y4961D01*
X26382Y5716D02*
X26969Y5129D01*
X26535Y4685D02*
Y5117D01*
X26160Y5493D02*
X26535Y5117D01*
X28184Y9282D02*
Y9341D01*
X27223Y8944D02*
X27620Y9341D01*
X27099Y8944D02*
X27223D01*
X28184Y9282D02*
X28856Y8609D01*
Y8541D02*
Y8609D01*
X26419Y10156D02*
Y10159D01*
X25937Y7407D02*
X26878Y8348D01*
X29803Y3268D02*
X30768D01*
X29803Y4291D02*
X30768D01*
X9882Y2638D02*
X10728D01*
X10728Y2638D01*
X9882Y3543D02*
X10728D01*
X10728Y3543D01*
X11398D02*
X12244D01*
X12717Y4016D01*
Y4670D01*
X13031Y3898D02*
Y4670D01*
X11772Y2638D02*
X13031Y3898D01*
X11398Y2638D02*
X11772D01*
X13228Y3504D02*
X13346Y3622D01*
Y4670D01*
X11520Y6496D02*
Y6811D01*
X10906Y6181D02*
X11520D01*
X10787Y6299D02*
X10906Y6181D01*
X8858Y6299D02*
X10787D01*
X8740Y6181D02*
X8858Y6299D01*
X12717Y8007D02*
Y9331D01*
X13937Y8046D02*
Y9331D01*
Y8046D02*
X13976Y8007D01*
X8740Y5551D02*
X8858D01*
X8905Y5504D02*
X11474D01*
X11520Y5551D01*
X8858Y5551D02*
X8905Y5504D01*
X13937Y9331D02*
Y9340D01*
X10276Y6811D02*
Y8189D01*
X9213Y2638D02*
X9252D01*
X9213Y3504D02*
X9252Y3543D01*
Y2638D02*
X9803Y2087D01*
X12480D01*
X13228Y2835D01*
Y3504D01*
X11063Y5236D02*
X11520D01*
X5774Y6325D02*
X5945Y6496D01*
X6339D01*
X7283Y5551D01*
X8740D01*
X6325Y5735D02*
X7099Y4961D01*
X10787D01*
X11063Y5236D01*
X15787Y3740D02*
X16024Y3504D01*
X14291Y8007D02*
X15182D01*
X15787Y7402D01*
Y3740D02*
Y7402D01*
X22325Y4211D02*
X23354Y5240D01*
Y5270D01*
X24245Y4285D02*
Y4379D01*
X24094Y4134D02*
X24245Y4285D01*
X27638Y1039D02*
X27693Y984D01*
X29693D02*
Y1528D01*
X25937Y5270D02*
X26220Y4986D01*
Y4528D02*
Y4986D01*
Y4528D02*
X26679Y4069D01*
X27061D01*
X25491Y4825D02*
X25820Y4496D01*
X25714Y5047D02*
X26020Y4741D01*
X25693Y984D02*
Y1315D01*
X23701Y3307D02*
X25693Y1315D01*
X23701Y3307D02*
Y4280D01*
X24023Y4602D01*
X25046Y3773D02*
Y4379D01*
Y3773D02*
X27638Y1181D01*
Y1039D02*
Y1181D01*
X25551Y3937D02*
Y4320D01*
X25269Y4602D02*
X25551Y4320D01*
Y3937D02*
X27756Y1732D01*
X25820Y4022D02*
Y4496D01*
X26020Y4216D02*
Y4741D01*
X24094Y3858D02*
Y4134D01*
Y3858D02*
X26693Y1260D01*
Y984D02*
Y1260D01*
X25820Y4022D02*
X27910Y1932D01*
X29288D01*
X29354Y2323D02*
X30693Y984D01*
X29288Y1932D02*
X29693Y1528D01*
X26020Y4216D02*
X27913Y2323D01*
X29354D01*
X27756Y1732D02*
X28425D01*
X28693Y1465D01*
Y984D02*
Y1465D01*
X11520Y6496D02*
X12244D01*
X13346Y5394D01*
Y4670D02*
Y5394D01*
X11520Y6811D02*
X13346D01*
X13976Y7441D01*
Y8007D01*
X25937Y7407D02*
Y7473D01*
X26153Y7689D01*
Y7823D01*
X25908Y8069D02*
X26153Y7823D01*
X25774Y8069D02*
X25908D01*
X25658Y7953D02*
X25774Y8069D01*
X25592Y7953D02*
X25658D01*
X21575Y4488D02*
X21852Y4211D01*
X22325D01*
X15193Y13035D02*
Y19984D01*
Y13035D02*
X21535Y6693D01*
Y5827D02*
Y6693D01*
X26605Y5938D02*
Y5957D01*
X28359D02*
X28780Y6378D01*
X27907Y6778D02*
X27913Y6732D01*
X26382Y6962D02*
Y7012D01*
X26890Y7520D01*
X26323Y11984D02*
X30743D01*
X25787Y12520D02*
X26323Y11984D01*
X26142Y12874D02*
X31063D01*
X31260Y11467D02*
X31743Y10984D01*
X31260Y11467D02*
Y12677D01*
X31063Y12874D02*
X31260Y12677D01*
D30*
X26878Y8348D02*
X27864Y7362D01*
X22940Y5716D02*
Y5777D01*
X32268Y11984D02*
X32835Y11417D01*
Y8307D02*
Y11417D01*
X31890Y7362D02*
X32835Y8307D01*
X27864Y7362D02*
X31890D01*
X19016Y5276D02*
X19685Y5945D01*
X20512D01*
X21339Y5118D01*
X22312D01*
X22909Y5716D01*
X27729Y4291D02*
X29173D01*
X27506Y4514D02*
X27729Y4291D01*
X22909Y5716D02*
X22940D01*
Y5777D02*
X23119Y5957D01*
X23596D01*
X25491Y7852D01*
X25867Y8228D02*
X26181D01*
X31743Y11984D02*
X32268D01*
X18193Y11232D02*
Y19984D01*
Y11232D02*
X22686Y6739D01*
X19193Y10678D02*
Y19984D01*
Y10678D02*
X22909Y6962D01*
X20193Y10123D02*
Y19984D01*
Y10123D02*
X23132Y7184D01*
X21193Y9569D02*
Y19984D01*
Y9569D02*
X23354Y7407D01*
X25491Y7852D02*
X25592Y7953D01*
X25867Y8228D01*
X23976Y8567D02*
X24245Y8298D01*
X23976Y8567D02*
Y18268D01*
X25693Y19984D01*
X23425Y8673D02*
X24023Y8075D01*
X23425Y8673D02*
Y18717D01*
X24693Y19984D01*
X22047Y9160D02*
X23577Y7630D01*
X22047Y9160D02*
Y19839D01*
X22193Y19984D01*
X22717Y8936D02*
X23800Y7852D01*
X22717Y8936D02*
Y19008D01*
X23693Y19984D01*
X17193Y11626D02*
Y19984D01*
Y11626D02*
X22686Y6133D01*
Y5938D02*
Y6133D01*
X27165Y5669D02*
X27294Y5521D01*
X27506Y5331D01*
Y4514D02*
Y5331D01*
X30315Y10984D02*
X30743D01*
X29843Y11457D02*
X30315Y10984D01*
X26181Y11457D02*
X29843D01*
X25709Y11929D02*
X26181Y11457D01*
X28268Y3268D02*
X29173D01*
D31*
X3504Y5447D02*
X3937Y5880D01*
X2074Y4017D02*
X3504Y5447D01*
X6339Y3150D02*
X7188Y2300D01*
X5104Y3150D02*
X6339D01*
X4022Y2068D02*
X5104Y3150D01*
X8009Y1479D02*
X8740Y748D01*
X9252D01*
X9882D02*
X11988D01*
X12894D02*
X15079D01*
X16102Y1772D01*
X17441D01*
X17693Y1520D01*
Y984D02*
Y1520D01*
X20512Y1811D02*
X20693Y1630D01*
X18520Y1811D02*
X20512D01*
X17693Y984D02*
X18520Y1811D01*
X19016Y4646D02*
X20693Y2968D01*
X19016Y4646D02*
Y5276D01*
X20693Y984D02*
Y1630D01*
Y2968D01*
X19016Y5276D02*
Y7756D01*
X23693Y984D02*
Y2134D01*
X23110Y2717D02*
X23693Y2134D01*
X21535Y2717D02*
X23110D01*
X19921Y4331D02*
X21535Y2717D01*
X19921Y4331D02*
Y5276D01*
X3431Y2868D02*
X3459D01*
X5880Y5289D01*
X2874Y3425D02*
X5328Y5880D01*
Y5880D01*
X17441Y9331D02*
X19016Y7756D01*
X13937Y9331D02*
X17441D01*
D32*
X27061Y3687D02*
Y4069D01*
Y3687D02*
X27992Y2756D01*
X31969D01*
X32283Y3071D01*
Y4764D01*
X31890Y5157D02*
X32283Y4764D01*
X30984Y5157D02*
X31890D01*
X30492Y5650D02*
X30984Y5157D01*
X30492Y5650D02*
Y5906D01*
Y8268D02*
Y9733D01*
X30743Y9984D01*
D33*
X30693Y19984D02*
D03*
X29693D02*
D03*
X28693D02*
D03*
X27693D02*
D03*
X26693D02*
D03*
X25693D02*
D03*
X24693D02*
D03*
X23693D02*
D03*
X22193D02*
D03*
X21193D02*
D03*
X20193D02*
D03*
X19193D02*
D03*
X18193D02*
D03*
X17193D02*
D03*
X16193D02*
D03*
X15193D02*
D03*
X14193D02*
D03*
X13193D02*
D03*
X16693Y984D02*
D03*
X17693D02*
D03*
X18693D02*
D03*
X19693D02*
D03*
X20693D02*
D03*
X21693D02*
D03*
X22693D02*
D03*
X23693D02*
D03*
X25693D02*
D03*
X26693D02*
D03*
X27693D02*
D03*
X28693D02*
D03*
X29693D02*
D03*
X30693D02*
D03*
D34*
X30743Y11984D02*
D03*
X31743D02*
D03*
X30743Y10984D02*
D03*
X31743D02*
D03*
X30743Y9984D02*
D03*
X31743D02*
D03*
D35*
X1969Y19291D02*
D03*
D36*
X28780Y6378D02*
D03*
X28268Y3268D02*
D03*
X26535Y4685D02*
D03*
X27008Y4961D02*
D03*
X27165Y5669D02*
D03*
X27907Y6778D02*
D03*
X26890Y7520D02*
D03*
X26181Y8228D02*
D03*
X25709Y11929D02*
D03*
X25787Y12520D02*
D03*
X26142Y12874D02*
D03*
X21575Y4488D02*
D03*
X21535Y5827D02*
D03*
X19488Y2835D02*
D03*
Y3346D02*
D03*
X3504Y5447D02*
D03*
X3937Y5880D02*
D03*
X10748Y5866D02*
D03*
X13268Y8701D02*
D03*
M02*
