G04 Layer_Physical_Order=2*
G04 Layer_Color=16711680*
%FSLAX24Y24*%
%MOIN*%
G70*
G01*
G75*
%ADD29C,0.0100*%
%ADD30C,0.0150*%
%ADD32C,0.0120*%
%ADD33O,0.0500X0.1000*%
%ADD34P,0.0660X8X292.5*%
%ADD35C,0.1378*%
%ADD36C,0.0276*%
G36*
X14532Y19519D02*
Y2994D01*
X14486Y2974D01*
X14346Y3115D01*
Y19419D01*
X14369Y19429D01*
X14443Y19485D01*
X14482Y19536D01*
X14532Y19519D01*
D02*
G37*
G36*
X30540Y1645D02*
Y1550D01*
X30516Y1540D01*
X30443Y1484D01*
X30387Y1411D01*
X30352Y1326D01*
X30340Y1234D01*
Y734D01*
X30352Y643D01*
X30387Y558D01*
X30407Y532D01*
X30385Y487D01*
X30001D01*
X29979Y532D01*
X29999Y558D01*
X30034Y643D01*
X30046Y734D01*
Y1234D01*
X30034Y1326D01*
X29999Y1411D01*
X29943Y1484D01*
X29869Y1540D01*
X29846Y1550D01*
Y1843D01*
X29834Y1901D01*
X29801Y1951D01*
X29628Y2124D01*
X29647Y2170D01*
X30015D01*
X30540Y1645D01*
D02*
G37*
G36*
X32670Y21055D02*
X32838Y21015D01*
X32998Y20949D01*
X33145Y20859D01*
X33276Y20747D01*
X33388Y20615D01*
X33478Y20468D01*
X33545Y20309D01*
X33585Y20141D01*
X33598Y19973D01*
X33597Y19969D01*
Y1262D01*
X33595Y1252D01*
X33595D01*
X33596Y1251D01*
X33583Y1080D01*
X33543Y912D01*
X33476Y752D01*
X33386Y605D01*
X33274Y474D01*
X33143Y362D01*
X32996Y272D01*
X32836Y205D01*
X32668Y165D01*
X32501Y152D01*
X32496Y153D01*
X31509D01*
X31494Y203D01*
X31503Y209D01*
X32556Y1263D01*
X32592Y1316D01*
X32604Y1378D01*
Y7323D01*
X32592Y7385D01*
X32556Y7438D01*
X30906Y9088D01*
Y9579D01*
X30945D01*
X31148Y9782D01*
Y10187D01*
X30945Y10389D01*
X30540D01*
X30338Y10187D01*
Y9782D01*
X30540Y9579D01*
X30580D01*
Y9021D01*
X30592Y8958D01*
X30628Y8906D01*
X32278Y7255D01*
Y1446D01*
X31320Y487D01*
X31001D01*
X30979Y532D01*
X30999Y558D01*
X31034Y643D01*
X31046Y734D01*
Y1234D01*
X31034Y1326D01*
X30999Y1411D01*
X30943Y1484D01*
X30869Y1540D01*
X30846Y1550D01*
Y1709D01*
X30834Y1767D01*
X30801Y1817D01*
X30187Y2431D01*
X30137Y2464D01*
X30079Y2476D01*
X15267D01*
X14838Y2905D01*
Y19546D01*
X14885Y19557D01*
X14888Y19557D01*
X14943Y19485D01*
X15016Y19429D01*
X15102Y19393D01*
X15193Y19381D01*
X15284Y19393D01*
X15369Y19429D01*
X15443Y19485D01*
X15499Y19558D01*
X15534Y19643D01*
X15546Y19734D01*
Y20234D01*
X15534Y20326D01*
X15499Y20411D01*
X15443Y20484D01*
X15369Y20540D01*
X15284Y20575D01*
X15193Y20587D01*
X15102Y20575D01*
X15016Y20540D01*
X14943Y20484D01*
X14888Y20412D01*
X14885Y20411D01*
X14838Y20423D01*
Y20472D01*
X14826Y20531D01*
X14793Y20581D01*
X14478Y20896D01*
X14429Y20929D01*
X14370Y20940D01*
X13465D01*
X13406Y20929D01*
X13356Y20896D01*
X13085Y20624D01*
X13052Y20574D01*
X13047Y20553D01*
X13016Y20540D01*
X12943Y20484D01*
X12887Y20411D01*
X12852Y20326D01*
X12840Y20234D01*
Y19734D01*
X12852Y19643D01*
X12887Y19558D01*
X12943Y19485D01*
X13016Y19429D01*
X13102Y19393D01*
X13193Y19381D01*
X13284Y19393D01*
X13369Y19429D01*
X13443Y19485D01*
X13499Y19558D01*
X13534Y19643D01*
X13546Y19734D01*
Y20234D01*
X13534Y20326D01*
X13499Y20411D01*
X13443Y20484D01*
X13436Y20489D01*
X13432Y20539D01*
X13528Y20634D01*
X14168D01*
X14172Y20584D01*
X14102Y20575D01*
X14016Y20540D01*
X13943Y20484D01*
X13887Y20411D01*
X13852Y20326D01*
X13840Y20234D01*
Y19734D01*
X13852Y19643D01*
X13887Y19558D01*
X13943Y19485D01*
X14016Y19429D01*
X14040Y19419D01*
Y3051D01*
X14052Y2993D01*
X14085Y2943D01*
X15013Y2015D01*
X15063Y1982D01*
X15121Y1970D01*
X29349D01*
X29540Y1779D01*
Y1550D01*
X29516Y1540D01*
X29443Y1484D01*
X29387Y1411D01*
X29352Y1326D01*
X29340Y1234D01*
Y734D01*
X29352Y643D01*
X29387Y558D01*
X29407Y532D01*
X29385Y487D01*
X29001D01*
X28979Y532D01*
X28999Y558D01*
X29034Y643D01*
X29046Y734D01*
Y1234D01*
X29034Y1326D01*
X28999Y1411D01*
X28943Y1484D01*
X28869Y1540D01*
X28784Y1575D01*
X28693Y1587D01*
X28602Y1575D01*
X28516Y1540D01*
X28443Y1484D01*
X28387Y1411D01*
X28352Y1326D01*
X28340Y1234D01*
Y734D01*
X28352Y643D01*
X28387Y558D01*
X28407Y532D01*
X28385Y487D01*
X28001D01*
X27979Y532D01*
X27999Y558D01*
X28034Y643D01*
X28046Y734D01*
Y1234D01*
X28034Y1326D01*
X27999Y1411D01*
X27943Y1484D01*
X27869Y1540D01*
X27784Y1575D01*
X27693Y1587D01*
X27602Y1575D01*
X27516Y1540D01*
X27443Y1484D01*
X27387Y1411D01*
X27352Y1326D01*
X27340Y1234D01*
Y734D01*
X27352Y643D01*
X27387Y558D01*
X27407Y532D01*
X27385Y487D01*
X27001D01*
X26979Y532D01*
X26999Y558D01*
X27034Y643D01*
X27046Y734D01*
Y1234D01*
X27034Y1326D01*
X26999Y1411D01*
X26943Y1484D01*
X26869Y1540D01*
X26784Y1575D01*
X26693Y1587D01*
X26602Y1575D01*
X26516Y1540D01*
X26443Y1484D01*
X26387Y1411D01*
X26352Y1326D01*
X26340Y1234D01*
Y734D01*
X26352Y643D01*
X26387Y558D01*
X26407Y532D01*
X26385Y487D01*
X26001D01*
X25979Y532D01*
X25999Y558D01*
X26034Y643D01*
X26046Y734D01*
Y1234D01*
X26034Y1326D01*
X25999Y1411D01*
X25943Y1484D01*
X25869Y1540D01*
X25784Y1575D01*
X25693Y1587D01*
X25602Y1575D01*
X25516Y1540D01*
X25443Y1484D01*
X25387Y1411D01*
X25352Y1326D01*
X25340Y1234D01*
Y734D01*
X25352Y643D01*
X25387Y558D01*
X25407Y532D01*
X25385Y487D01*
X24001D01*
X23979Y532D01*
X23999Y558D01*
X24034Y643D01*
X24046Y734D01*
Y1234D01*
X24034Y1326D01*
X23999Y1411D01*
X23943Y1484D01*
X23869Y1540D01*
X23784Y1575D01*
X23693Y1587D01*
X23602Y1575D01*
X23516Y1540D01*
X23443Y1484D01*
X23387Y1411D01*
X23352Y1326D01*
X23340Y1234D01*
Y734D01*
X23352Y643D01*
X23387Y558D01*
X23407Y532D01*
X23385Y487D01*
X23001D01*
X22979Y532D01*
X22999Y558D01*
X23034Y643D01*
X23046Y734D01*
Y934D01*
X22693D01*
X22340D01*
Y734D01*
X22352Y643D01*
X22387Y558D01*
X22407Y532D01*
X22385Y487D01*
X22001D01*
X21979Y532D01*
X21999Y558D01*
X22034Y643D01*
X22046Y734D01*
Y934D01*
X21693D01*
X21340D01*
Y734D01*
X21352Y643D01*
X21387Y558D01*
X21407Y532D01*
X21385Y487D01*
X21001D01*
X20979Y532D01*
X20999Y558D01*
X21034Y643D01*
X21046Y734D01*
Y1234D01*
X21034Y1326D01*
X20999Y1411D01*
X20943Y1484D01*
X20869Y1540D01*
X20784Y1575D01*
X20693Y1587D01*
X20602Y1575D01*
X20516Y1540D01*
X20443Y1484D01*
X20387Y1411D01*
X20352Y1326D01*
X20340Y1234D01*
Y734D01*
X20352Y643D01*
X20387Y558D01*
X20407Y532D01*
X20385Y487D01*
X20001D01*
X19979Y532D01*
X19999Y558D01*
X20034Y643D01*
X20046Y734D01*
Y1234D01*
X20034Y1326D01*
X19999Y1411D01*
X19943Y1484D01*
X19869Y1540D01*
X19784Y1575D01*
X19693Y1587D01*
X19602Y1575D01*
X19516Y1540D01*
X19443Y1484D01*
X19412Y1482D01*
X19092Y1801D01*
X19043Y1834D01*
X18984Y1846D01*
X13213D01*
X10901Y4158D01*
Y5682D01*
X10919Y5695D01*
X10972Y5773D01*
X10990Y5866D01*
X10972Y5959D01*
X10919Y6038D01*
X10841Y6090D01*
X10748Y6109D01*
X10655Y6090D01*
X10577Y6038D01*
X10524Y5959D01*
X10506Y5866D01*
X10524Y5773D01*
X10577Y5695D01*
X10595Y5682D01*
Y4094D01*
X10607Y4036D01*
X10640Y3986D01*
X13041Y1585D01*
X13091Y1552D01*
X13150Y1540D01*
X16439D01*
X16455Y1493D01*
X16443Y1484D01*
X16387Y1411D01*
X16352Y1326D01*
X16340Y1234D01*
Y734D01*
X16352Y643D01*
X16387Y558D01*
X16443Y485D01*
X16516Y429D01*
X16602Y393D01*
X16693Y381D01*
X16784Y393D01*
X16869Y429D01*
X16943Y485D01*
X16999Y558D01*
X17034Y643D01*
X17046Y734D01*
Y1234D01*
X17034Y1326D01*
X16999Y1411D01*
X16943Y1484D01*
X16931Y1493D01*
X16947Y1540D01*
X17439D01*
X17455Y1493D01*
X17443Y1484D01*
X17387Y1411D01*
X17352Y1326D01*
X17340Y1234D01*
Y734D01*
X17352Y643D01*
X17387Y558D01*
X17443Y485D01*
X17516Y429D01*
X17602Y393D01*
X17693Y381D01*
X17784Y393D01*
X17869Y429D01*
X17943Y485D01*
X17999Y558D01*
X18034Y643D01*
X18046Y734D01*
Y1234D01*
X18034Y1326D01*
X17999Y1411D01*
X17943Y1484D01*
X17931Y1493D01*
X17947Y1540D01*
X18439D01*
X18455Y1493D01*
X18443Y1484D01*
X18387Y1411D01*
X18352Y1326D01*
X18340Y1234D01*
Y734D01*
X18352Y643D01*
X18387Y558D01*
X18443Y485D01*
X18516Y429D01*
X18602Y393D01*
X18693Y381D01*
X18784Y393D01*
X18869Y429D01*
X18943Y485D01*
X18961Y486D01*
X19238Y209D01*
X19246Y203D01*
X19231Y153D01*
X8330D01*
X5895Y2550D01*
X5870Y2566D01*
X5846Y2582D01*
X5845Y2582D01*
X5845Y2583D01*
X5816Y2588D01*
X5787Y2594D01*
X5787Y2594D01*
X5786Y2594D01*
X5758Y2588D01*
X5729Y2582D01*
X5728Y2582D01*
X5728Y2582D01*
X5704Y2565D01*
X5679Y2549D01*
X2555Y5673D01*
X2571Y5698D01*
X2588Y5722D01*
X2588Y5722D01*
X2588Y5723D01*
X2594Y5752D01*
X2600Y5780D01*
X2600Y5781D01*
X2600Y5781D01*
X2594Y5810D01*
X2589Y5839D01*
X2588Y5839D01*
X2588Y5840D01*
X2572Y5864D01*
X2556Y5889D01*
X153Y8330D01*
Y19969D01*
X152Y19973D01*
X165Y20141D01*
X205Y20309D01*
X272Y20468D01*
X362Y20615D01*
X474Y20747D01*
X605Y20859D01*
X752Y20949D01*
X912Y21015D01*
X1080Y21055D01*
X1247Y21068D01*
X1252Y21068D01*
X32498D01*
X32503Y21068D01*
X32670Y21055D01*
D02*
G37*
%LPC*%
G36*
X3987Y6113D02*
Y5930D01*
X4170D01*
X4161Y5973D01*
X4108Y6052D01*
X4030Y6104D01*
X3987Y6113D01*
D02*
G37*
G36*
X3887D02*
X3844Y6104D01*
X3766Y6052D01*
X3713Y5973D01*
X3704Y5930D01*
X3887D01*
Y6113D01*
D02*
G37*
G36*
Y5830D02*
X3704D01*
X3713Y5787D01*
X3766Y5709D01*
X3844Y5656D01*
X3887Y5648D01*
Y5830D01*
D02*
G37*
G36*
X4170D02*
X3987D01*
Y5648D01*
X4030Y5656D01*
X4108Y5709D01*
X4161Y5787D01*
X4170Y5830D01*
D02*
G37*
G36*
X27693Y20587D02*
X27602Y20575D01*
X27516Y20540D01*
X27443Y20484D01*
X27387Y20411D01*
X27352Y20326D01*
X27340Y20234D01*
Y19734D01*
X27352Y19643D01*
X27387Y19558D01*
X27443Y19485D01*
X27516Y19429D01*
X27602Y19393D01*
X27693Y19381D01*
X27784Y19393D01*
X27818Y19407D01*
X28043Y19182D01*
Y7098D01*
X27945Y7013D01*
X27907Y7021D01*
X27814Y7002D01*
X27735Y6950D01*
X27683Y6871D01*
X27664Y6778D01*
X27683Y6685D01*
X27735Y6607D01*
X27814Y6554D01*
X27907Y6536D01*
X28000Y6554D01*
X28078Y6607D01*
X28131Y6685D01*
X28149Y6778D01*
X28148Y6785D01*
X28296Y6912D01*
X28299Y6916D01*
X28304Y6920D01*
X28317Y6940D01*
X28332Y6959D01*
X28334Y6965D01*
X28337Y6969D01*
X28342Y6993D01*
X28348Y7017D01*
X28347Y7022D01*
X28349Y7028D01*
Y19245D01*
X28337Y19304D01*
X28304Y19353D01*
X28028Y19629D01*
X28034Y19643D01*
X28046Y19734D01*
Y20234D01*
X28034Y20326D01*
X27999Y20411D01*
X27943Y20484D01*
X27869Y20540D01*
X27784Y20575D01*
X27693Y20587D01*
D02*
G37*
G36*
X13500Y8651D02*
X13318D01*
Y8468D01*
X13361Y8477D01*
X13439Y8529D01*
X13492Y8608D01*
X13500Y8651D01*
D02*
G37*
G36*
X13218Y8933D02*
X13175Y8925D01*
X13096Y8872D01*
X13044Y8794D01*
X13035Y8751D01*
X13218D01*
Y8933D01*
D02*
G37*
G36*
X26693Y20587D02*
X26602Y20575D01*
X26516Y20540D01*
X26443Y20484D01*
X26387Y20411D01*
X26352Y20326D01*
X26340Y20234D01*
Y19734D01*
X26352Y19643D01*
X26387Y19558D01*
X26443Y19485D01*
X26516Y19429D01*
X26540Y19419D01*
Y19291D01*
X26552Y19233D01*
X26585Y19183D01*
X26737Y19031D01*
Y7703D01*
X26718Y7691D01*
X26666Y7612D01*
X26647Y7520D01*
X26666Y7427D01*
X26718Y7348D01*
X26797Y7296D01*
X26890Y7277D01*
X26983Y7296D01*
X27061Y7348D01*
X27114Y7427D01*
X27132Y7520D01*
X27114Y7612D01*
X27061Y7691D01*
X27043Y7703D01*
Y19094D01*
X27031Y19153D01*
X26998Y19203D01*
X26846Y19355D01*
Y19419D01*
X26869Y19429D01*
X26943Y19485D01*
X26999Y19558D01*
X27034Y19643D01*
X27046Y19734D01*
Y20234D01*
X27034Y20326D01*
X26999Y20411D01*
X26943Y20484D01*
X26869Y20540D01*
X26784Y20575D01*
X26693Y20587D01*
D02*
G37*
G36*
X13218Y8651D02*
X13035D01*
X13044Y8608D01*
X13096Y8529D01*
X13175Y8477D01*
X13218Y8468D01*
Y8651D01*
D02*
G37*
G36*
X3554Y5680D02*
Y5497D01*
X3736D01*
X3728Y5540D01*
X3675Y5619D01*
X3597Y5671D01*
X3554Y5680D01*
D02*
G37*
G36*
X21743Y1581D02*
Y1034D01*
X22046D01*
Y1234D01*
X22034Y1326D01*
X21999Y1411D01*
X21943Y1484D01*
X21869Y1540D01*
X21784Y1575D01*
X21743Y1581D01*
D02*
G37*
G36*
X22743D02*
Y1034D01*
X23046D01*
Y1234D01*
X23034Y1326D01*
X22999Y1411D01*
X22943Y1484D01*
X22869Y1540D01*
X22784Y1575D01*
X22743Y1581D01*
D02*
G37*
G36*
X21643D02*
X21602Y1575D01*
X21516Y1540D01*
X21443Y1484D01*
X21387Y1411D01*
X21352Y1326D01*
X21340Y1234D01*
Y1034D01*
X21643D01*
Y1581D01*
D02*
G37*
G36*
X22643D02*
X22602Y1575D01*
X22516Y1540D01*
X22443Y1484D01*
X22387Y1411D01*
X22352Y1326D01*
X22340Y1234D01*
Y1034D01*
X22643D01*
Y1581D01*
D02*
G37*
G36*
X30945Y11389D02*
X30540D01*
X30338Y11187D01*
Y10831D01*
X29953Y10446D01*
X29914Y10388D01*
X29900Y10320D01*
Y5664D01*
X28142Y3906D01*
X28103Y3848D01*
X28089Y3780D01*
Y3429D01*
X28044Y3361D01*
X28025Y3268D01*
X28044Y3175D01*
X28096Y3096D01*
X28175Y3044D01*
X28268Y3025D01*
X28361Y3044D01*
X28439Y3096D01*
X28492Y3175D01*
X28510Y3268D01*
X28492Y3361D01*
X28446Y3429D01*
Y3706D01*
X30205Y5464D01*
X30205Y5464D01*
X30244Y5522D01*
X30257Y5591D01*
Y10246D01*
X30590Y10579D01*
X30945D01*
X31148Y10782D01*
Y11187D01*
X30945Y11389D01*
D02*
G37*
G36*
X3736Y5397D02*
X3554D01*
Y5215D01*
X3597Y5223D01*
X3675Y5276D01*
X3728Y5354D01*
X3736Y5397D01*
D02*
G37*
G36*
X3454Y5680D02*
X3411Y5671D01*
X3332Y5619D01*
X3280Y5540D01*
X3271Y5497D01*
X3454D01*
Y5680D01*
D02*
G37*
G36*
X21535Y6069D02*
X21443Y6051D01*
X21364Y5998D01*
X21311Y5920D01*
X21293Y5827D01*
X21311Y5734D01*
X21364Y5655D01*
X21382Y5643D01*
Y4628D01*
X21351Y4581D01*
X21332Y4488D01*
X21351Y4395D01*
X21403Y4317D01*
X21482Y4264D01*
X21575Y4246D01*
X21668Y4264D01*
X21746Y4317D01*
X21799Y4395D01*
X21817Y4488D01*
X21799Y4581D01*
X21746Y4660D01*
X21688Y4698D01*
Y5643D01*
X21707Y5655D01*
X21759Y5734D01*
X21778Y5827D01*
X21759Y5920D01*
X21707Y5998D01*
X21628Y6051D01*
X21535Y6069D01*
D02*
G37*
G36*
X3454Y5397D02*
X3271D01*
X3280Y5354D01*
X3332Y5276D01*
X3411Y5223D01*
X3454Y5215D01*
Y5397D01*
D02*
G37*
G36*
X13318Y8933D02*
Y8751D01*
X13500D01*
X13492Y8794D01*
X13439Y8872D01*
X13361Y8925D01*
X13318Y8933D01*
D02*
G37*
G36*
X23693Y20587D02*
X23602Y20575D01*
X23516Y20540D01*
X23443Y20484D01*
X23387Y20411D01*
X23352Y20326D01*
X23340Y20234D01*
Y19734D01*
X23352Y19643D01*
X23387Y19558D01*
X23443Y19485D01*
X23516Y19429D01*
X23602Y19393D01*
X23693Y19381D01*
X23784Y19393D01*
X23869Y19429D01*
X23943Y19485D01*
X23999Y19558D01*
X24034Y19643D01*
X24046Y19734D01*
Y20234D01*
X24034Y20326D01*
X23999Y20411D01*
X23943Y20484D01*
X23869Y20540D01*
X23784Y20575D01*
X23693Y20587D01*
D02*
G37*
G36*
X24693D02*
X24602Y20575D01*
X24516Y20540D01*
X24443Y20484D01*
X24387Y20411D01*
X24352Y20326D01*
X24340Y20234D01*
Y19734D01*
X24352Y19643D01*
X24387Y19558D01*
X24443Y19485D01*
X24516Y19429D01*
X24602Y19393D01*
X24693Y19381D01*
X24784Y19393D01*
X24869Y19429D01*
X24943Y19485D01*
X24999Y19558D01*
X25034Y19643D01*
X25046Y19734D01*
Y20234D01*
X25034Y20326D01*
X24999Y20411D01*
X24943Y20484D01*
X24869Y20540D01*
X24784Y20575D01*
X24693Y20587D01*
D02*
G37*
G36*
X22193D02*
X22102Y20575D01*
X22016Y20540D01*
X21943Y20484D01*
X21887Y20411D01*
X21852Y20326D01*
X21840Y20234D01*
Y19734D01*
X21852Y19643D01*
X21887Y19558D01*
X21943Y19485D01*
X22016Y19429D01*
X22102Y19393D01*
X22193Y19381D01*
X22284Y19393D01*
X22369Y19429D01*
X22443Y19485D01*
X22499Y19558D01*
X22534Y19643D01*
X22546Y19734D01*
Y20234D01*
X22534Y20326D01*
X22499Y20411D01*
X22443Y20484D01*
X22369Y20540D01*
X22284Y20575D01*
X22193Y20587D01*
D02*
G37*
G36*
X20193D02*
X20102Y20575D01*
X20016Y20540D01*
X19943Y20484D01*
X19887Y20411D01*
X19852Y20326D01*
X19840Y20234D01*
Y19734D01*
X19852Y19643D01*
X19887Y19558D01*
X19943Y19485D01*
X20016Y19429D01*
X20102Y19393D01*
X20193Y19381D01*
X20284Y19393D01*
X20369Y19429D01*
X20443Y19485D01*
X20499Y19558D01*
X20534Y19643D01*
X20546Y19734D01*
Y20234D01*
X20534Y20326D01*
X20499Y20411D01*
X20443Y20484D01*
X20369Y20540D01*
X20284Y20575D01*
X20193Y20587D01*
D02*
G37*
G36*
X21193D02*
X21102Y20575D01*
X21016Y20540D01*
X20943Y20484D01*
X20887Y20411D01*
X20852Y20326D01*
X20840Y20234D01*
Y19734D01*
X20852Y19643D01*
X20887Y19558D01*
X20943Y19485D01*
X21016Y19429D01*
X21102Y19393D01*
X21193Y19381D01*
X21284Y19393D01*
X21369Y19429D01*
X21443Y19485D01*
X21499Y19558D01*
X21534Y19643D01*
X21546Y19734D01*
Y20234D01*
X21534Y20326D01*
X21499Y20411D01*
X21443Y20484D01*
X21369Y20540D01*
X21284Y20575D01*
X21193Y20587D01*
D02*
G37*
G36*
X25693D02*
X25602Y20575D01*
X25516Y20540D01*
X25443Y20484D01*
X25387Y20411D01*
X25352Y20326D01*
X25340Y20234D01*
Y19734D01*
X25352Y19643D01*
X25387Y19558D01*
X25443Y19485D01*
X25516Y19429D01*
X25602Y19393D01*
X25693Y19381D01*
X25784Y19393D01*
X25869Y19429D01*
X25943Y19485D01*
X25999Y19558D01*
X26034Y19643D01*
X26046Y19734D01*
Y20234D01*
X26034Y20326D01*
X25999Y20411D01*
X25943Y20484D01*
X25869Y20540D01*
X25784Y20575D01*
X25693Y20587D01*
D02*
G37*
G36*
X16243Y20581D02*
Y20034D01*
X16546D01*
Y20234D01*
X16534Y20326D01*
X16499Y20411D01*
X16443Y20484D01*
X16369Y20540D01*
X16284Y20575D01*
X16243Y20581D01*
D02*
G37*
G36*
X30433Y20862D02*
X29488D01*
X29430Y20850D01*
X29380Y20817D01*
X29104Y20541D01*
X29071Y20492D01*
X29060Y20433D01*
Y20394D01*
X29010Y20384D01*
X28999Y20411D01*
X28943Y20484D01*
X28869Y20540D01*
X28784Y20575D01*
X28693Y20587D01*
X28602Y20575D01*
X28516Y20540D01*
X28443Y20484D01*
X28387Y20411D01*
X28352Y20326D01*
X28340Y20234D01*
Y19734D01*
X28352Y19643D01*
X28387Y19558D01*
X28443Y19485D01*
X28516Y19429D01*
X28602Y19393D01*
X28693Y19381D01*
X28708Y19383D01*
X28745Y19346D01*
Y6613D01*
X28687Y6602D01*
X28608Y6549D01*
X28556Y6471D01*
X28537Y6378D01*
X28556Y6285D01*
X28608Y6207D01*
X28687Y6154D01*
X28780Y6136D01*
X28807Y6141D01*
X28831Y6095D01*
X28244Y5507D01*
X27396D01*
X27373Y5551D01*
X27389Y5577D01*
X27408Y5669D01*
X27389Y5762D01*
X27337Y5841D01*
X27258Y5893D01*
X27165Y5912D01*
X27073Y5893D01*
X27004Y5848D01*
X26058D01*
X25848Y6058D01*
Y7643D01*
X26193Y7988D01*
X26274Y8004D01*
X26353Y8057D01*
X26405Y8136D01*
X26424Y8228D01*
X26405Y8321D01*
X26353Y8400D01*
X26274Y8452D01*
X26181Y8471D01*
X26088Y8452D01*
X26010Y8400D01*
X25957Y8321D01*
X25941Y8241D01*
X25543Y7843D01*
X25504Y7785D01*
X25491Y7717D01*
Y5984D01*
X25504Y5916D01*
X25543Y5858D01*
X25858Y5543D01*
X25916Y5504D01*
X25984Y5491D01*
X26661D01*
X26681Y5441D01*
X26427Y5187D01*
X26394Y5137D01*
X26382Y5079D01*
Y4869D01*
X26364Y4856D01*
X26311Y4778D01*
X26293Y4685D01*
X26297Y4664D01*
X25126Y3499D01*
X19672D01*
X19660Y3518D01*
X19581Y3570D01*
X19488Y3589D01*
X19395Y3570D01*
X19317Y3518D01*
X19264Y3439D01*
X19246Y3346D01*
X19264Y3254D01*
X19317Y3175D01*
X19395Y3122D01*
X19428Y3116D01*
Y3065D01*
X19395Y3059D01*
X19317Y3006D01*
X19264Y2927D01*
X19246Y2835D01*
X19264Y2742D01*
X19317Y2663D01*
X19395Y2611D01*
X19488Y2592D01*
X19581Y2611D01*
X19660Y2663D01*
X19672Y2682D01*
X25096D01*
X25125Y2687D01*
X25153Y2693D01*
X25154Y2693D01*
X25155Y2693D01*
X25179Y2710D01*
X25203Y2725D01*
X27074Y4560D01*
X27086Y4577D01*
X27099Y4592D01*
X27102Y4601D01*
X27108Y4609D01*
X27112Y4629D01*
X27119Y4648D01*
X27134Y4759D01*
X27179Y4789D01*
X27192Y4808D01*
X28268D01*
X28326Y4819D01*
X28376Y4852D01*
X29801Y6278D01*
X29834Y6327D01*
X29846Y6386D01*
Y19419D01*
X29869Y19429D01*
X29943Y19485D01*
X29999Y19558D01*
X30034Y19643D01*
X30046Y19734D01*
Y20234D01*
X30034Y20326D01*
X29999Y20411D01*
X29943Y20484D01*
X29914Y20506D01*
X29931Y20556D01*
X30370D01*
X30443Y20483D01*
X30387Y20411D01*
X30352Y20326D01*
X30340Y20234D01*
Y19734D01*
X30352Y19643D01*
X30387Y19558D01*
X30443Y19485D01*
X30516Y19429D01*
X30602Y19393D01*
X30693Y19381D01*
X30784Y19393D01*
X30869Y19429D01*
X30943Y19485D01*
X30999Y19558D01*
X31034Y19643D01*
X31046Y19734D01*
Y20234D01*
X31034Y20326D01*
X30999Y20411D01*
X30943Y20484D01*
X30869Y20540D01*
X30784Y20575D01*
X30783Y20575D01*
X30541Y20817D01*
X30492Y20850D01*
X30433Y20862D01*
D02*
G37*
G36*
X16143Y20581D02*
X16102Y20575D01*
X16016Y20540D01*
X15943Y20484D01*
X15887Y20411D01*
X15852Y20326D01*
X15840Y20234D01*
Y20034D01*
X16143D01*
Y20581D01*
D02*
G37*
G36*
X16546Y19934D02*
X16243D01*
Y19388D01*
X16284Y19393D01*
X16369Y19429D01*
X16443Y19485D01*
X16499Y19558D01*
X16534Y19643D01*
X16546Y19734D01*
Y19934D01*
D02*
G37*
G36*
X16143D02*
X15840D01*
Y19734D01*
X15852Y19643D01*
X15887Y19558D01*
X15943Y19485D01*
X16016Y19429D01*
X16102Y19393D01*
X16143Y19388D01*
Y19934D01*
D02*
G37*
G36*
X32148Y9934D02*
X31793D01*
Y9579D01*
X31945D01*
X32148Y9782D01*
Y9934D01*
D02*
G37*
G36*
X31693D02*
X31338D01*
Y9782D01*
X31540Y9579D01*
X31693D01*
Y9934D01*
D02*
G37*
G36*
X31945Y11389D02*
X31540D01*
X31338Y11187D01*
Y10782D01*
X31540Y10579D01*
X31945D01*
X32148Y10782D01*
Y11187D01*
X31945Y11389D01*
D02*
G37*
G36*
X31693Y10389D02*
X31540D01*
X31338Y10187D01*
Y10034D01*
X31693D01*
Y10389D01*
D02*
G37*
G36*
X31945D02*
X31793D01*
Y10034D01*
X32148D01*
Y10187D01*
X31945Y10389D01*
D02*
G37*
G36*
X19193Y20587D02*
X19102Y20575D01*
X19016Y20540D01*
X18943Y20484D01*
X18887Y20411D01*
X18852Y20326D01*
X18840Y20234D01*
Y19734D01*
X18852Y19643D01*
X18887Y19558D01*
X18943Y19485D01*
X19016Y19429D01*
X19040Y19419D01*
Y17697D01*
X19052Y17638D01*
X19085Y17589D01*
X23908Y12766D01*
X23957Y12733D01*
X24008Y12723D01*
X24003Y12673D01*
X22859D01*
X18346Y17185D01*
Y19419D01*
X18369Y19429D01*
X18443Y19485D01*
X18499Y19558D01*
X18534Y19643D01*
X18546Y19734D01*
Y20234D01*
X18534Y20326D01*
X18499Y20411D01*
X18443Y20484D01*
X18369Y20540D01*
X18284Y20575D01*
X18193Y20587D01*
X18102Y20575D01*
X18016Y20540D01*
X17943Y20484D01*
X17887Y20411D01*
X17852Y20326D01*
X17840Y20234D01*
Y19734D01*
X17852Y19643D01*
X17887Y19558D01*
X17943Y19485D01*
X18016Y19429D01*
X18040Y19419D01*
Y17122D01*
X18052Y17064D01*
X18085Y17014D01*
X22687Y12412D01*
X22737Y12378D01*
X22795Y12367D01*
X25604D01*
X25616Y12348D01*
X25695Y12296D01*
X25787Y12277D01*
X25880Y12296D01*
X25959Y12348D01*
X26011Y12427D01*
X26030Y12520D01*
X26011Y12612D01*
X26008Y12617D01*
X26044Y12653D01*
X26049Y12650D01*
X26142Y12632D01*
X26235Y12650D01*
X26313Y12703D01*
X26366Y12781D01*
X26384Y12874D01*
X26366Y12967D01*
X26313Y13045D01*
X26235Y13098D01*
X26142Y13116D01*
X26049Y13098D01*
X25970Y13045D01*
X25958Y13027D01*
X24079D01*
X19346Y17760D01*
Y19419D01*
X19369Y19429D01*
X19443Y19485D01*
X19499Y19558D01*
X19534Y19643D01*
X19546Y19734D01*
Y20234D01*
X19534Y20326D01*
X19499Y20411D01*
X19443Y20484D01*
X19369Y20540D01*
X19284Y20575D01*
X19193Y20587D01*
D02*
G37*
G36*
X1969Y20084D02*
X1814Y20069D01*
X1665Y20024D01*
X1528Y19951D01*
X1408Y19852D01*
X1309Y19732D01*
X1236Y19595D01*
X1191Y19446D01*
X1176Y19291D01*
X1191Y19137D01*
X1236Y18988D01*
X1309Y18851D01*
X1408Y18731D01*
X1528Y18632D01*
X1665Y18559D01*
X1814Y18514D01*
X1969Y18499D01*
X2123Y18514D01*
X2272Y18559D01*
X2409Y18632D01*
X2529Y18731D01*
X2628Y18851D01*
X2701Y18988D01*
X2746Y19137D01*
X2761Y19291D01*
X2746Y19446D01*
X2701Y19595D01*
X2628Y19732D01*
X2529Y19852D01*
X2409Y19951D01*
X2272Y20024D01*
X2123Y20069D01*
X1969Y20084D01*
D02*
G37*
G36*
X17193Y20587D02*
X17102Y20575D01*
X17016Y20540D01*
X16943Y20484D01*
X16887Y20411D01*
X16852Y20326D01*
X16840Y20234D01*
Y19734D01*
X16852Y19643D01*
X16887Y19558D01*
X16943Y19485D01*
X17014Y19430D01*
Y17098D01*
X17028Y17030D01*
X17067Y16972D01*
X22236Y11803D01*
X22236Y11803D01*
X22294Y11764D01*
X22362Y11751D01*
X25548D01*
X25616Y11705D01*
X25709Y11687D01*
X25801Y11705D01*
X25880Y11758D01*
X25933Y11836D01*
X25951Y11929D01*
X25933Y12022D01*
X25880Y12101D01*
X25801Y12153D01*
X25709Y12172D01*
X25616Y12153D01*
X25548Y12108D01*
X22436D01*
X17371Y17172D01*
Y19430D01*
X17443Y19485D01*
X17499Y19558D01*
X17534Y19643D01*
X17546Y19734D01*
Y20234D01*
X17534Y20326D01*
X17499Y20411D01*
X17443Y20484D01*
X17369Y20540D01*
X17284Y20575D01*
X17193Y20587D01*
D02*
G37*
G36*
X30945Y12389D02*
X30540D01*
X30338Y12187D01*
Y11782D01*
X30540Y11579D01*
X30945D01*
X31148Y11782D01*
Y12187D01*
X30945Y12389D01*
D02*
G37*
G36*
X31945D02*
X31540D01*
X31338Y12187D01*
Y11782D01*
X31540Y11579D01*
X31945D01*
X32148Y11782D01*
Y12187D01*
X31945Y12389D01*
D02*
G37*
%LPD*%
G36*
X25194Y3147D02*
X25195Y3145D01*
X25034Y2988D01*
X19672D01*
X19660Y3006D01*
X19581Y3059D01*
X19549Y3065D01*
Y3116D01*
X19581Y3122D01*
X19660Y3175D01*
X19672Y3194D01*
X25172D01*
X25194Y3147D01*
D02*
G37*
G36*
X29443Y19485D02*
X29516Y19429D01*
X29540Y19419D01*
Y6449D01*
X29412Y6321D01*
X29366Y6340D01*
Y19504D01*
X29416Y19521D01*
X29443Y19485D01*
D02*
G37*
D29*
X19488Y3346D02*
X25190D01*
X26535Y4685D01*
X19488Y2835D02*
X25096D01*
X26967Y4669D01*
X27008Y4961D01*
X21535Y4528D02*
X21575Y4488D01*
X21535Y4528D02*
Y5827D01*
X29693Y6386D02*
Y19984D01*
X26535Y5079D02*
X26811Y5354D01*
X28307D01*
X28268Y4961D02*
X29693Y6386D01*
X27008Y4961D02*
X28268D01*
X30693Y19984D02*
Y20449D01*
X26535Y4685D02*
Y5079D01*
X30433Y20709D02*
X30693Y20449D01*
X29488Y20709D02*
X30433D01*
X27907Y6778D02*
X28196Y7028D01*
X26890Y7520D02*
Y19094D01*
X26693Y19291D02*
X26890Y19094D01*
X26693Y19291D02*
Y19984D01*
X10748Y4094D02*
Y5748D01*
X29693Y984D02*
Y1843D01*
X14193Y3051D02*
Y19984D01*
X13193D02*
Y20516D01*
X13465Y20787D01*
X14685Y2842D02*
X15204Y2323D01*
X13465Y20787D02*
X14370D01*
X14685Y20472D01*
Y2842D02*
Y20472D01*
X15204Y2323D02*
X30079D01*
X30693Y1709D01*
Y984D02*
Y1709D01*
X10748Y4094D02*
X13150Y1693D01*
X18984D01*
X19693Y984D01*
X15121Y2123D02*
X29413D01*
X29693Y1843D01*
X14193Y3051D02*
X15121Y2123D01*
X24016Y12874D02*
X26142D01*
X19193Y17697D02*
X24016Y12874D01*
X19193Y17697D02*
Y19984D01*
X22795Y12520D02*
X25787D01*
X18193Y17122D02*
X22795Y12520D01*
X18193Y17122D02*
Y19984D01*
X28693Y19614D02*
Y19984D01*
X27693Y19748D02*
Y19984D01*
Y19748D02*
X28196Y19245D01*
Y7028D02*
Y19245D01*
X28780Y6378D02*
X28898Y6496D01*
Y19409D01*
X28693Y19614D02*
X28898Y19409D01*
X28307Y5354D02*
X29213Y6260D01*
Y20433D01*
X29488Y20709D01*
D30*
X25669Y7717D02*
X26181Y8228D01*
X25669Y5984D02*
Y7717D01*
Y5984D02*
X25984Y5669D01*
X27165D01*
X22362Y11929D02*
X25709D01*
X17193Y17098D02*
X22362Y11929D01*
X17193Y17098D02*
Y19984D01*
X28268Y3268D02*
Y3780D01*
X30079Y5591D01*
Y10320D01*
X30743Y10984D01*
D32*
X18693Y984D02*
X19353Y324D01*
X31387D01*
X30743Y9021D02*
Y9984D01*
X31387Y324D02*
X32441Y1378D01*
Y7323D01*
X30743Y9021D02*
X32441Y7323D01*
D33*
X30693Y19984D02*
D03*
X29693D02*
D03*
X28693D02*
D03*
X27693D02*
D03*
X26693D02*
D03*
X25693D02*
D03*
X24693D02*
D03*
X23693D02*
D03*
X22193D02*
D03*
X21193D02*
D03*
X20193D02*
D03*
X19193D02*
D03*
X18193D02*
D03*
X17193D02*
D03*
X16193D02*
D03*
X15193D02*
D03*
X14193D02*
D03*
X13193D02*
D03*
X16693Y984D02*
D03*
X17693D02*
D03*
X18693D02*
D03*
X19693D02*
D03*
X20693D02*
D03*
X21693D02*
D03*
X22693D02*
D03*
X23693D02*
D03*
X25693D02*
D03*
X26693D02*
D03*
X27693D02*
D03*
X28693D02*
D03*
X29693D02*
D03*
X30693D02*
D03*
D34*
X30743Y11984D02*
D03*
X31743D02*
D03*
X30743Y10984D02*
D03*
X31743D02*
D03*
X30743Y9984D02*
D03*
X31743D02*
D03*
D35*
X1969Y19291D02*
D03*
D36*
X28780Y6378D02*
D03*
X28268Y3268D02*
D03*
X26535Y4685D02*
D03*
X27008Y4961D02*
D03*
X27165Y5669D02*
D03*
X27907Y6778D02*
D03*
X26890Y7520D02*
D03*
X26181Y8228D02*
D03*
X25709Y11929D02*
D03*
X25787Y12520D02*
D03*
X26142Y12874D02*
D03*
X21575Y4488D02*
D03*
X21535Y5827D02*
D03*
X19488Y2835D02*
D03*
Y3346D02*
D03*
X3504Y5447D02*
D03*
X3937Y5880D02*
D03*
X10748Y5866D02*
D03*
X13268Y8701D02*
D03*
M02*
