G04 Layer_Color=32768*
%FSLAX24Y24*%
%MOIN*%
G70*
G01*
G75*
%ADD37C,0.0039*%
%ADD70C,0.0020*%
D37*
X26214Y9484D02*
X27773Y7925D01*
X26214Y9484D02*
X27655Y10924D01*
X29214Y9365D01*
X27773Y7925D02*
X29214Y9365D01*
X7917Y508D02*
X8981Y1571D01*
X7280Y3272D02*
X8981Y1571D01*
X6216Y2209D02*
X7280Y3272D01*
X6216Y2209D02*
X7917Y508D01*
X29803Y5118D02*
Y8858D01*
X32638D01*
Y5118D02*
Y8858D01*
X29803Y5118D02*
X32638D01*
D70*
X5342Y5476D02*
X6178Y6311D01*
X4925Y5894D02*
X5342Y5476D01*
X4925Y5894D02*
X5760Y6729D01*
X6178Y6311D01*
X5894Y4885D02*
X6729Y5721D01*
X5476Y5303D02*
X5894Y4885D01*
X5476Y5303D02*
X6311Y6138D01*
X6729Y5721D01*
X8445Y5276D02*
Y6457D01*
X9035D01*
Y5276D02*
Y6457D01*
X8445Y5276D02*
X9035D01*
X10571Y7992D02*
Y9173D01*
X9980Y7992D02*
X10571D01*
X9980D02*
Y9173D01*
X10571D01*
X15748Y3209D02*
X16929D01*
X15748D02*
Y3799D01*
X16929D01*
Y3209D02*
Y3799D01*
X15748Y2539D02*
X16929D01*
X15748D02*
Y3130D01*
X16929D01*
Y2539D02*
Y3130D01*
X28898Y2972D02*
X30079D01*
X28898D02*
Y3563D01*
X30079D01*
Y2972D02*
Y3563D01*
X28898Y3996D02*
X30079D01*
X28898D02*
Y4587D01*
X30079D01*
Y3996D02*
Y4587D01*
X30433Y2904D02*
X31772D01*
X30433D02*
Y3632D01*
X31772D01*
Y2904D02*
Y3632D01*
X30433Y3927D02*
X31772D01*
X30433D02*
Y4656D01*
X31772D01*
Y3927D02*
Y4656D01*
X8976Y453D02*
X10157D01*
X8976D02*
Y1043D01*
X10157D01*
Y453D02*
Y1043D01*
X9512Y6122D02*
X10488D01*
Y5610D02*
Y6122D01*
X9512Y5610D02*
X10488D01*
X9512D02*
Y6122D01*
Y7067D02*
X10488D01*
Y6555D02*
Y7067D01*
X9512Y6555D02*
X10488D01*
X9512D02*
Y7067D01*
X13173Y9587D02*
X14150D01*
Y9075D02*
Y9587D01*
X13173Y9075D02*
X14150D01*
X13173D02*
Y9587D01*
X13016Y3248D02*
X13992D01*
X13016D02*
Y3760D01*
X13992D01*
Y3248D02*
Y3760D01*
X9079Y1791D02*
X10055D01*
Y1280D02*
Y1791D01*
X9079Y1280D02*
X10055D01*
X9079D02*
Y1791D01*
X11953Y9587D02*
X12929D01*
Y9075D02*
Y9587D01*
X11953Y9075D02*
X12929D01*
X11953D02*
Y9587D01*
X17976Y4232D02*
X18953D01*
Y3720D02*
Y4232D01*
X17976Y3720D02*
X18953D01*
X17976D02*
Y4232D01*
X24646Y3429D02*
X27555Y6339D01*
X21737D02*
X24646Y3429D01*
X21737Y6339D02*
X24646Y9248D01*
X27555Y6339D01*
X26857Y8017D02*
X27219Y8379D01*
X26529Y9069D02*
X27219Y8379D01*
X26167Y8708D02*
X26529Y9069D01*
X26167Y8708D02*
X26857Y8017D01*
X21994Y4180D02*
X22355Y4542D01*
X21994Y4180D02*
X22684Y3490D01*
X23046Y3851D01*
X22355Y4542D02*
X23046Y3851D01*
X28826Y8873D02*
X29188Y8511D01*
X28135Y8182D02*
X28826Y8873D01*
X28135Y8182D02*
X28497Y7820D01*
X29188Y8511D01*
X26778Y10880D02*
X27140Y10519D01*
X26088Y10190D02*
X26778Y10880D01*
X26088Y10190D02*
X26450Y9828D01*
X27140Y10519D01*
X26657Y4083D02*
X27075Y3665D01*
X27910Y4500D01*
X27492Y4918D02*
X27910Y4500D01*
X26657Y4083D02*
X27492Y4918D01*
X11132Y8396D02*
X15246D01*
Y4281D02*
Y8396D01*
X11132Y4281D02*
X15246D01*
X11132D02*
Y8396D01*
X11732Y2274D02*
Y3002D01*
X10394D02*
X11732D01*
X10394Y2274D02*
Y3002D01*
Y2274D02*
X11732D01*
Y3179D02*
Y3907D01*
X10394D02*
X11732D01*
X10394Y3179D02*
Y3907D01*
Y3179D02*
X11732D01*
X10157Y2343D02*
Y2933D01*
X8976D02*
X10157D01*
X8976Y2343D02*
Y2933D01*
Y2343D02*
X10157D01*
Y3248D02*
Y3839D01*
X8976D02*
X10157D01*
X8976Y3248D02*
Y3839D01*
Y3248D02*
X10157D01*
X11663Y295D02*
X13218D01*
X11663D02*
Y1201D01*
X13218D01*
Y295D02*
Y1201D01*
X17598Y4833D02*
Y8199D01*
X20433D01*
Y4833D02*
Y8199D01*
X17598Y4833D02*
X20433D01*
M02*
