M48
;Layer_Color=9474304
;FILE_FORMAT=2:4
INCH,LZ
;TYPE=PLATED
T1F00S00C0.0157
T2F00S00C0.0374
T3F00S00C0.0400
T4F00S00C0.1181
%
T01
X003504Y005447
X019488Y003346
Y002835
X021575Y004488
X026535Y004685
X027008Y004961
X028268Y003268
X027165Y005669
X027907Y006778
X02878Y006378
X02689Y00752
X026181Y008228
X025709Y011929
X025787Y01252
X026142Y012874
X021535Y005827
X010748Y005866
X013268Y008701
X003937Y00588
T02
X030743Y009984
Y010984
Y011984
X031743
Y010984
Y009984
T03
X016693Y000984
X017693
X018693
X019693
X020693
X021693
X022693
X023693
X025693
X026693
X027693
X028693
X029693
X030693
Y019984
X029693
X028693
X027693
X026693
X025693
X024693
X023693
X022193
X021193
X020193
X019193
X018193
X017193
X016193
X015193
X014193
X013193
T04
X001969Y019291
M30
